<svg width="24" height="24" viewBox="0 0 24 24" fill="none" xmlns="http://www.w3.org/2000/svg">
<path fill-rule="evenodd" clip-rule="evenodd" d="M14.2705 17.0728C14.1127 18.9126 11.2048 19.5391 7.63956 19.5391C3.97315 19.5391 1 18.8766 1 16.9132C0.999998 14.9498 3.97222 12.8501 7.63863 12.8501C9.64382 12.8501 11.4414 13.4781 12.6586 14.3684C12.6586 14.3684 12.6587 14.3684 12.6587 14.3684C13.6237 15.0742 14.2239 15.9448 14.2739 16.798C14.2761 16.8364 14.2772 16.8748 14.2772 16.9131M14.2705 17.0728C14.275 17.0206 14.2772 16.9674 14.2772 16.9132L14.2705 17.0728ZM11.2133 8.03607C11.2133 10.0103 9.61284 11.6107 7.63862 11.6107C5.6644 11.6107 4.06398 10.0103 4.06398 8.03607C4.06397 6.06185 5.6644 4.46142 7.63862 4.46142C9.61284 4.46142 11.2133 6.06185 11.2133 8.03607ZM17.358 18.4086C16.7575 18.4086 16.179 18.3877 15.6361 18.3421C15.8281 17.9301 15.941 17.4565 15.941 16.9131C15.941 15.4963 15.1422 14.2971 14.1235 13.4115C15.0392 12.9889 16.1542 12.723 17.3572 12.723C20.4736 12.723 23 14.5078 23 16.1767C23 17.8455 20.4744 18.4086 17.358 18.4086ZM17.3572 11.6695C19.0353 11.6695 20.3956 10.3092 20.3956 8.6311C20.3956 6.95301 19.0353 5.59265 17.3572 5.59265C15.6791 5.59265 14.3187 6.95301 14.3187 8.6311C14.3187 10.3092 15.6791 11.6695 17.3572 11.6695Z" fill="#BFC5D0"/>
</svg>
