<svg width="351" height="54" viewBox="0 0 351 54" fill="none" xmlns="http://www.w3.org/2000/svg">
<rect x="0.431152" width="350" height="54" rx="27" fill="#FEE500"/>
<g clip-path="url(#clip0_404_5456)">
<path opacity="0.902" fill-rule="evenodd" clip-rule="evenodd" d="M113.931 18.9438C109.221 18.9438 104.931 22.7298 104.931 25.9328C104.931 28.3328 106.489 30.4498 108.862 31.7078L107.864 35.3738C107.775 35.6988 108.144 35.9568 108.427 35.7698L112.804 32.8648C113.173 32.9008 113.549 32.9218 113.931 32.9218C118.901 32.9218 122.931 29.7928 122.931 25.9328C122.931 22.7298 118.901 18.9438 113.931 18.9438Z" fill="black"/>
</g>
<path d="M137.578 20.267H139.771C139.771 21.491 139.675 22.6583 139.482 23.769C139.301 24.8797 138.961 25.9337 138.462 26.931C137.963 27.9283 137.255 28.8633 136.337 29.736C135.419 30.6087 134.223 31.419 132.75 32.167L131.543 30.433C132.767 29.821 133.77 29.1693 134.552 28.478C135.345 27.7753 135.957 27.0273 136.388 26.234C136.83 25.4293 137.136 24.5567 137.306 23.616C137.487 22.6753 137.578 21.6553 137.578 20.556V20.267ZM132.529 20.267H138.904V22.069H132.529V20.267ZM137.629 24.126V25.86L131.985 26.404L131.696 24.483L137.629 24.126ZM141.675 18.737H143.953V34.479H141.675V18.737ZM143.375 24.772H146.146V26.625H143.375V24.772ZM153.217 20.267H155.41C155.41 21.491 155.313 22.6583 155.121 23.769C154.939 24.8797 154.599 25.9337 154.101 26.931C153.602 27.9283 152.894 28.8633 151.976 29.736C151.058 30.6087 149.862 31.419 148.389 32.167L147.182 30.433C148.406 29.821 149.409 29.1693 150.191 28.478C150.984 27.7753 151.596 27.0273 152.027 26.234C152.469 25.4293 152.775 24.5567 152.945 23.616C153.126 22.6753 153.217 21.6553 153.217 20.556V20.267ZM148.168 20.267H154.543V22.069H148.168V20.267ZM153.268 24.126V25.86L147.624 26.404L147.335 24.483L153.268 24.126ZM157.314 18.737H159.592V34.479H157.314V18.737ZM159.014 24.772H161.785V26.625H159.014V24.772ZM168.889 27.611H171.133V31.198H168.889V27.611ZM170.011 19.57C171.133 19.57 172.136 19.7513 173.02 20.114C173.916 20.4653 174.618 20.964 175.128 21.61C175.638 22.256 175.893 23.021 175.893 23.905C175.893 24.7777 175.638 25.5427 175.128 26.2C174.618 26.8573 173.916 27.3673 173.02 27.73C172.136 28.0813 171.133 28.257 170.011 28.257C168.901 28.257 167.898 28.0813 167.002 27.73C166.118 27.3673 165.416 26.8573 164.894 26.2C164.384 25.5427 164.129 24.7777 164.129 23.905C164.129 23.021 164.384 22.256 164.894 21.61C165.416 20.964 166.118 20.4653 167.002 20.114C167.898 19.7513 168.901 19.57 170.011 19.57ZM170.011 21.355C169.297 21.355 168.663 21.457 168.107 21.661C167.563 21.865 167.133 22.154 166.815 22.528C166.509 22.902 166.356 23.361 166.356 23.905C166.356 24.4377 166.509 24.8967 166.815 25.282C167.133 25.656 167.563 25.945 168.107 26.149C168.663 26.353 169.297 26.455 170.011 26.455C170.737 26.455 171.371 26.353 171.915 26.149C172.471 25.945 172.901 25.656 173.207 25.282C173.513 24.8967 173.666 24.4377 173.666 23.905C173.666 23.361 173.513 22.902 173.207 22.528C172.901 22.154 172.471 21.865 171.915 21.661C171.371 21.457 170.737 21.355 170.011 21.355ZM162.905 30.841H177.168V32.677H162.905V30.841ZM178.544 30.943H192.807V32.779H178.544V30.943ZM184.528 27.951H186.772V31.674H184.528V27.951ZM180.159 19.774H191.192V25.027H182.42V27.662H180.176V23.259H188.948V21.576H180.159V19.774ZM180.176 26.778H191.549V28.58H180.176V26.778ZM198.715 30.943H212.978V32.779H198.715V30.943ZM204.699 27.951H206.943V31.674H204.699V27.951ZM200.33 19.774H211.363V25.027H202.591V27.662H200.347V23.259H209.119V21.576H200.33V19.774ZM200.347 26.778H211.72V28.58H200.347V26.778ZM215.816 20.199H225.778V22.001H215.816V20.199ZM214.354 30.62H228.6V32.456H214.354V30.62ZM224.588 20.199H226.849V22.069C226.849 22.8057 226.837 23.5537 226.815 24.313C226.803 25.0723 226.758 25.8827 226.679 26.744C226.611 27.6053 226.475 28.58 226.271 29.668L224.01 29.464C224.214 28.4553 224.35 27.526 224.418 26.676C224.497 25.826 224.542 25.027 224.554 24.279C224.576 23.5197 224.588 22.783 224.588 22.069V20.199ZM240.804 18.771H243.065V30.076H240.804V18.771ZM232.576 32.422H243.473V34.241H232.576V32.422ZM232.576 28.954H234.837V33.17H232.576V28.954ZM234.497 19.774C235.302 19.774 236.027 19.944 236.673 20.284C237.319 20.624 237.829 21.0943 238.203 21.695C238.589 22.2957 238.781 22.987 238.781 23.769C238.781 24.5283 238.589 25.214 238.203 25.826C237.829 26.4267 237.319 26.9027 236.673 27.254C236.027 27.594 235.302 27.764 234.497 27.764C233.693 27.764 232.967 27.594 232.321 27.254C231.675 26.9027 231.16 26.4267 230.774 25.826C230.4 25.214 230.213 24.5283 230.213 23.769C230.213 22.987 230.4 22.2957 230.774 21.695C231.16 21.0943 231.675 20.624 232.321 20.284C232.967 19.944 233.693 19.774 234.497 19.774ZM234.497 21.712C234.112 21.712 233.761 21.797 233.443 21.967C233.126 22.1257 232.877 22.358 232.695 22.664C232.514 22.9587 232.423 23.327 232.423 23.769C232.423 24.1883 232.514 24.551 232.695 24.857C232.877 25.1517 233.126 25.384 233.443 25.554C233.761 25.7127 234.112 25.792 234.497 25.792C234.883 25.792 235.234 25.7127 235.551 25.554C235.869 25.384 236.118 25.1517 236.299 24.857C236.481 24.551 236.571 24.1883 236.571 23.769C236.571 23.327 236.481 22.9587 236.299 22.664C236.118 22.358 235.869 22.1257 235.551 21.967C235.234 21.797 234.883 21.712 234.497 21.712Z" fill="black"/>
<defs>
<clipPath id="clip0_404_5456">
<rect width="18" height="18" fill="white" transform="translate(104.931 18)"/>
</clipPath>
</defs>
</svg>
