<svg width="24" height="24" viewBox="0 0 24 24" fill="none" xmlns="http://www.w3.org/2000/svg">
<path fill-rule="evenodd" clip-rule="evenodd" d="M6.00002 3C4.34316 3 3.00002 4.34315 3.00002 6V18C3.00002 19.6569 4.34316 21 6.00002 21H18C19.6569 21 21 19.6569 21 18V6C21 4.34315 19.6569 3 18 3H6.00002ZM5.22705 13.9363L7.52419 10.9558C7.95739 10.3938 8.80525 10.3938 9.23844 10.9558L9.86553 11.7695C10.0821 12.0505 10.5061 12.0505 10.7227 11.7695L13.0557 8.74236C13.4889 8.18028 14.3368 8.18028 14.77 8.74236L18.773 13.9363C19.3214 14.6478 18.8142 15.6791 17.9159 15.6791H6.08417C5.18586 15.6791 4.67867 14.6478 5.22705 13.9363Z" fill="#F0F2F5"/>
</svg>
