<svg width="351" height="54" viewBox="0 0 351 54" fill="none" xmlns="http://www.w3.org/2000/svg">
<rect x="0.431152" width="350" height="54" rx="27" fill="white"/>
<path d="M116.904 21.0938C117.084 21.0938 117.39 21.1224 117.823 21.1796C118.256 21.2367 118.729 21.4001 119.244 21.6696C119.767 21.9309 120.24 22.3678 120.665 22.9803C120.64 23.0048 120.522 23.0947 120.31 23.2498C120.097 23.3968 119.86 23.6173 119.599 23.9113C119.338 24.1972 119.109 24.5647 118.913 25.0139C118.717 25.4549 118.619 25.9816 118.619 26.5941C118.619 27.2965 118.742 27.8926 118.987 28.3827C119.24 28.8727 119.53 29.2688 119.856 29.5709C120.191 29.8649 120.485 30.0813 120.738 30.2202C121 30.359 121.139 30.4325 121.155 30.4407C121.147 30.4734 121.041 30.7633 120.836 31.3104C120.64 31.8576 120.314 32.466 119.856 33.1357C119.456 33.7156 119.023 34.2505 118.558 34.7405C118.101 35.2305 117.549 35.4755 116.904 35.4755C116.471 35.4755 116.116 35.4142 115.838 35.2917C115.561 35.1611 115.275 35.0345 114.981 34.912C114.687 34.7813 114.291 34.716 113.793 34.716C113.311 34.716 112.906 34.7813 112.58 34.912C112.261 35.0427 111.955 35.1733 111.661 35.304C111.375 35.4347 111.036 35.5 110.644 35.5C110.048 35.5 109.525 35.2632 109.076 34.7895C108.627 34.3158 108.166 33.7482 107.692 33.0867C107.145 32.3027 106.675 31.3472 106.283 30.2202C105.899 29.085 105.707 27.9417 105.707 26.7901C105.707 25.557 105.94 24.5239 106.406 23.6908C106.871 22.8497 107.467 22.2167 108.194 21.7921C108.929 21.3592 109.689 21.1428 110.473 21.1428C110.889 21.1428 111.281 21.2122 111.649 21.3511C112.016 21.4817 112.359 21.6165 112.678 21.7553C113.004 21.8942 113.298 21.9636 113.56 21.9636C113.813 21.9636 114.107 21.8901 114.442 21.7431C114.777 21.5961 115.152 21.4531 115.569 21.3143C115.985 21.1673 116.43 21.0938 116.904 21.0938ZM116.23 19.538C115.912 19.9219 115.512 20.2445 115.03 20.5058C114.548 20.759 114.091 20.8856 113.658 20.8856C113.568 20.8856 113.482 20.8774 113.401 20.8611C113.392 20.8366 113.384 20.7916 113.376 20.7263C113.368 20.661 113.364 20.5916 113.364 20.5181C113.364 20.028 113.47 19.5544 113.682 19.097C113.895 18.6315 114.136 18.2477 114.405 17.9455C114.748 17.5372 115.181 17.1983 115.704 16.9288C116.226 16.6593 116.724 16.5163 117.198 16.5C117.223 16.6062 117.235 16.7328 117.235 16.8798C117.235 17.3698 117.141 17.8475 116.953 18.313C116.765 18.7704 116.524 19.1787 116.23 19.538Z" fill="black"/>
<path d="M129.744 33L133.994 21.022H135.771V23.2466H135.131L131.985 33H129.744ZM131.886 29.9038L132.442 28.252H137.937L138.493 29.9038H131.886ZM138.419 33L135.273 23.2466V21.022H136.401L140.66 33H138.419ZM142.503 36.0132V23.9272H144.569V25.3467H144.711C144.877 25.0202 145.092 24.7407 145.358 24.5083C145.629 24.2759 145.942 24.096 146.296 23.9688C146.65 23.8415 147.04 23.7778 147.466 23.7778C148.225 23.7778 148.88 23.9688 149.434 24.3506C149.993 24.7324 150.424 25.2747 150.729 25.9775C151.039 26.6748 151.193 27.5021 151.193 28.4595V28.4761C151.193 29.439 151.041 30.269 150.737 30.9663C150.433 31.6636 150.001 32.2031 149.442 32.585C148.889 32.9613 148.23 33.1494 147.466 33.1494C147.051 33.1494 146.664 33.0858 146.304 32.9585C145.945 32.8257 145.629 32.6403 145.358 32.4023C145.087 32.1644 144.871 31.8822 144.711 31.5557H144.569V36.0132H142.503ZM146.819 31.4062C147.289 31.4062 147.693 31.29 148.031 31.0576C148.368 30.8197 148.629 30.4821 148.811 30.0449C148.994 29.6022 149.085 29.0793 149.085 28.4761V28.4595C149.085 27.8452 148.994 27.3195 148.811 26.8823C148.629 26.4451 148.368 26.1104 148.031 25.8779C147.693 25.64 147.289 25.521 146.819 25.521C146.349 25.521 145.942 25.64 145.599 25.8779C145.261 26.1104 144.998 26.4451 144.81 26.8823C144.628 27.3195 144.536 27.8424 144.536 28.4512V28.4678C144.536 29.0765 144.628 29.6022 144.81 30.0449C144.998 30.4821 145.264 30.8197 145.607 31.0576C145.95 31.29 146.354 31.4062 146.819 31.4062ZM153.277 36.0132V23.9272H155.344V25.3467H155.485C155.651 25.0202 155.867 24.7407 156.132 24.5083C156.404 24.2759 156.716 24.096 157.07 23.9688C157.425 23.8415 157.815 23.7778 158.241 23.7778C158.999 23.7778 159.655 23.9688 160.208 24.3506C160.767 24.7324 161.199 25.2747 161.503 25.9775C161.813 26.6748 161.968 27.5021 161.968 28.4595V28.4761C161.968 29.439 161.816 30.269 161.511 30.9663C161.207 31.6636 160.775 32.2031 160.216 32.585C159.663 32.9613 159.004 33.1494 158.241 33.1494C157.826 33.1494 157.438 33.0858 157.079 32.9585C156.719 32.8257 156.404 32.6403 156.132 32.4023C155.861 32.1644 155.645 31.8822 155.485 31.5557H155.344V36.0132H153.277ZM157.593 31.4062C158.064 31.4062 158.468 31.29 158.805 31.0576C159.143 30.8197 159.403 30.4821 159.586 30.0449C159.768 29.6022 159.859 29.0793 159.859 28.4761V28.4595C159.859 27.8452 159.768 27.3195 159.586 26.8823C159.403 26.4451 159.143 26.1104 158.805 25.8779C158.468 25.64 158.064 25.521 157.593 25.521C157.123 25.521 156.716 25.64 156.373 25.8779C156.036 26.1104 155.773 26.4451 155.585 26.8823C155.402 27.3195 155.311 27.8424 155.311 28.4512V28.4678C155.311 29.0765 155.402 29.6022 155.585 30.0449C155.773 30.4821 156.038 30.8197 156.381 31.0576C156.725 31.29 157.129 31.4062 157.593 31.4062ZM164.134 33V20.416H166.201V33H164.134ZM172.684 33.1826C171.782 33.1826 171.007 32.9917 170.36 32.6099C169.718 32.228 169.223 31.6857 168.874 30.9829C168.525 30.2801 168.351 29.4473 168.351 28.4844V28.4761C168.351 27.5243 168.523 26.6942 168.866 25.9858C169.214 25.2775 169.707 24.7297 170.343 24.3423C170.98 23.9494 171.727 23.7529 172.585 23.7529C173.448 23.7529 174.189 23.9438 174.809 24.3257C175.434 24.702 175.916 25.2305 176.254 25.9111C176.591 26.5918 176.76 27.3887 176.76 28.3018V28.9824H169.389V27.5962H175.747L174.768 28.8911V28.0693C174.768 27.4661 174.676 26.9653 174.494 26.5669C174.311 26.1685 174.057 25.8696 173.73 25.6704C173.409 25.4712 173.036 25.3716 172.609 25.3716C172.183 25.3716 171.804 25.4767 171.472 25.687C171.146 25.8918 170.886 26.1961 170.692 26.6001C170.504 26.9985 170.41 27.4883 170.41 28.0693V28.8994C170.41 29.4583 170.504 29.937 170.692 30.3354C170.88 30.7284 171.146 31.0327 171.489 31.2485C171.837 31.4588 172.25 31.564 172.726 31.564C173.096 31.564 173.415 31.5114 173.68 31.4062C173.951 31.2956 174.17 31.1655 174.336 31.0161C174.502 30.8612 174.618 30.7145 174.685 30.5762L174.71 30.5181H176.669L176.652 30.5928C176.58 30.8861 176.447 31.1849 176.254 31.4893C176.065 31.7881 175.808 32.0675 175.482 32.3276C175.161 32.5822 174.768 32.7897 174.303 32.9502C173.838 33.1051 173.298 33.1826 172.684 33.1826ZM178.262 30.943H192.525V32.779H178.262V30.943ZM184.246 27.951H186.49V31.674H184.246V27.951ZM179.877 19.774H190.91V25.027H182.138V27.662H179.894V23.259H188.666V21.576H179.877V19.774ZM179.894 26.778H191.267V28.58H179.894V26.778ZM198.433 30.943H212.696V32.779H198.433V30.943ZM204.417 27.951H206.661V31.674H204.417V27.951ZM200.048 19.774H211.081V25.027H202.309V27.662H200.065V23.259H208.837V21.576H200.048V19.774ZM200.065 26.778H211.438V28.58H200.065V26.778ZM215.534 20.199H225.496V22.001H215.534V20.199ZM214.072 30.62H228.318V32.456H214.072V30.62ZM224.306 20.199H226.567V22.069C226.567 22.8057 226.555 23.5537 226.533 24.313C226.521 25.0723 226.476 25.8827 226.397 26.744C226.329 27.6053 226.193 28.58 225.989 29.668L223.728 29.464C223.932 28.4553 224.068 27.526 224.136 26.676C224.215 25.826 224.26 25.027 224.272 24.279C224.294 23.5197 224.306 22.783 224.306 22.069V20.199ZM240.522 18.771H242.783V30.076H240.522V18.771ZM232.294 32.422H243.191V34.241H232.294V32.422ZM232.294 28.954H234.555V33.17H232.294V28.954ZM234.215 19.774C235.02 19.774 235.745 19.944 236.391 20.284C237.037 20.624 237.547 21.0943 237.921 21.695C238.307 22.2957 238.499 22.987 238.499 23.769C238.499 24.5283 238.307 25.214 237.921 25.826C237.547 26.4267 237.037 26.9027 236.391 27.254C235.745 27.594 235.02 27.764 234.215 27.764C233.411 27.764 232.685 27.594 232.039 27.254C231.393 26.9027 230.878 26.4267 230.492 25.826C230.118 25.214 229.931 24.5283 229.931 23.769C229.931 22.987 230.118 22.2957 230.492 21.695C230.878 21.0943 231.393 20.624 232.039 20.284C232.685 19.944 233.411 19.774 234.215 19.774ZM234.215 21.712C233.83 21.712 233.479 21.797 233.161 21.967C232.844 22.1257 232.595 22.358 232.413 22.664C232.232 22.9587 232.141 23.327 232.141 23.769C232.141 24.1883 232.232 24.551 232.413 24.857C232.595 25.1517 232.844 25.384 233.161 25.554C233.479 25.7127 233.83 25.792 234.215 25.792C234.601 25.792 234.952 25.7127 235.269 25.554C235.587 25.384 235.836 25.1517 236.017 24.857C236.199 24.551 236.289 24.1883 236.289 23.769C236.289 23.327 236.199 22.9587 236.017 22.664C235.836 22.358 235.587 22.1257 235.269 21.967C234.952 21.797 234.601 21.712 234.215 21.712Z" fill="black"/>
</svg>
