<svg width="24" height="24" viewBox="0 0 24 24" fill="none" xmlns="http://www.w3.org/2000/svg">
<path d="M10.6318 7.12821C10.7849 8.68493 10.4841 10.0508 10.1141 11.1132C10.0075 11.4194 9.74641 11.6428 9.43139 11.7195L4.85018 12.8344C4.4288 12.937 3.98561 12.7583 3.78143 12.3757C3.23904 11.3593 2.70136 9.99419 2.62014 8.51204C2.4518 5.43974 3.51039 2.42862 6.33899 2.03577C9.1676 1.64291 10.3793 4.56094 10.6318 7.12821Z" fill="#F0F2F5"/>
<path d="M4.94201 15.7849C4.81512 15.2935 5.1482 14.8203 5.64135 14.7003L9.35864 13.7956C9.79074 13.6904 10.2508 13.8805 10.403 14.2983C10.771 15.3089 10.7875 16.4607 10.3372 17.2289C9.62172 18.4494 7.37816 19.2436 5.96022 17.776C5.45167 17.2497 5.12883 16.5084 4.94201 15.7849Z" fill="#F0F2F5"/>
<path d="M13.3682 10.5581C13.2151 12.115 13.516 13.481 13.886 14.5435C13.9927 14.8496 14.2537 15.0731 14.5687 15.1497L19.1681 16.2691C19.5922 16.3723 20.038 16.1904 20.2393 15.803C20.7736 14.7749 21.3005 13.3902 21.3799 11.942C21.5482 8.86967 20.4896 5.85855 17.661 5.46569C14.8324 5.07284 13.6207 7.99087 13.3682 10.5581Z" fill="#F0F2F5"/>
<path d="M13.6628 20.6589C13.2125 19.8907 13.229 18.739 13.5969 17.7286C13.7491 17.3107 14.2091 17.1206 14.6413 17.2258L18.3586 18.1305C18.8517 18.2505 19.1848 18.7237 19.0579 19.2151C18.8711 19.9386 18.5483 20.6797 18.0398 21.206C16.6218 22.6735 14.3783 21.8794 13.6628 20.6589Z" fill="#F0F2F5"/>
</svg>
