<svg width="320" height="320" viewBox="0 0 320 320" fill="none" xmlns="http://www.w3.org/2000/svg">
<g clip-path="url(#clip0_601_10797)">
<path d="M320 160C320 248.366 248.366 320 160 320C71.6344 320 0 248.366 0 160C0 71.6344 71.6344 0 160 0C248.366 0 320 71.6344 320 160Z" fill="url(#paint0_radial_601_10797)"/>
<g filter="url(#filter0_d_601_10797)">
<path fill-rule="evenodd" clip-rule="evenodd" d="M241.356 160C241.356 204.931 204.932 241.356 160 241.356C115.068 241.356 78.644 204.931 78.644 160C78.644 115.068 115.068 78.6436 160 78.6436C204.932 78.6436 241.356 115.068 241.356 160ZM160 239.356C203.827 239.356 239.356 203.827 239.356 160C239.356 116.172 203.827 80.6436 160 80.6436C116.173 80.6436 80.644 116.172 80.644 160C80.644 203.827 116.173 239.356 160 239.356Z" fill="url(#paint1_linear_601_10797)" fill-opacity="0.3" shape-rendering="crispEdges"/>
</g>
<g filter="url(#filter1_dd_601_10797)">
<path d="M220.275 160C220.275 193.289 193.289 220.275 160 220.275C126.711 220.275 99.7249 193.289 99.7249 160C99.7249 126.711 126.711 99.7246 160 99.7246C193.289 99.7246 220.275 126.711 220.275 160Z" fill="url(#paint2_linear_601_10797)"/>
</g>
<path fill-rule="evenodd" clip-rule="evenodd" d="M160 100.725C127.263 100.725 100.725 127.263 100.725 160C100.725 192.736 127.263 219.275 160 219.275C192.737 219.275 219.275 192.736 219.275 160C219.275 127.263 192.737 100.725 160 100.725ZM98.7249 160C98.7249 126.158 126.159 98.7246 160 98.7246C193.841 98.7246 221.275 126.158 221.275 160C221.275 193.841 193.841 221.275 160 221.275C126.159 221.275 98.7249 193.841 98.7249 160Z" fill="url(#paint3_linear_601_10797)"/>
<g opacity="0.3" filter="url(#filter2_df_601_10797)">
<path d="M222.275 126.449C222.275 132.538 217.338 137.475 211.249 137.475C205.159 137.475 200.222 132.538 200.222 126.449C200.222 120.359 205.159 115.422 211.249 115.422C217.338 115.422 222.275 120.359 222.275 126.449Z" fill="#DF5438"/>
</g>
<g opacity="0.6" filter="url(#filter3_df_601_10797)">
<path d="M122.397 170.73C122.397 179.008 115.686 185.719 107.407 185.719C99.129 185.719 92.418 179.008 92.418 170.73C92.418 162.451 99.129 155.74 107.407 155.74C115.686 155.74 122.397 162.451 122.397 170.73Z" fill="#DF5438"/>
</g>
<g opacity="0.1" filter="url(#filter4_df_601_10797)">
<path d="M284.352 226.581C284.352 257.789 259.053 283.089 227.845 283.089C196.637 283.089 171.337 257.789 171.337 226.581C171.337 195.373 196.637 170.074 227.845 170.074C259.053 170.074 284.352 195.373 284.352 226.581Z" fill="#DF5438"/>
</g>
<g opacity="0.1" filter="url(#filter5_df_601_10797)">
<path d="M162 97.4908C162 124.22 140.332 145.889 113.602 145.889C86.8726 145.889 65.2041 124.22 65.2041 97.4908C65.2041 70.7613 86.8726 49.0928 113.602 49.0928C140.332 49.0928 162 70.7613 162 97.4908Z" fill="#DF5438"/>
</g>
<g filter="url(#filter6_ddf_601_10797)">
<path d="M266.418 166.144C265.932 165.882 265.75 165.276 266.012 164.79L268.119 160.88C268.381 160.394 268.987 160.212 269.474 160.474L273.383 162.581C273.869 162.843 274.051 163.45 273.789 163.936L271.682 167.846C271.42 168.332 270.813 168.513 270.327 168.251L266.418 166.144Z" fill="white"/>
</g>
<g opacity="0.8" filter="url(#filter7_ddf_601_10797)">
<rect x="92.418" y="131.577" width="6.44108" height="6.44108" rx="1" transform="rotate(-23.7137 92.418 131.577)" fill="white"/>
</g>
<g filter="url(#filter8_df_601_10797)">
<circle cx="61.8759" cy="164.363" r="6.36604" fill="white"/>
</g>
<g filter="url(#filter9_df_601_10797)">
<path d="M248.406 145.89C248.406 149.783 245.25 152.939 241.356 152.939C237.463 152.939 234.306 149.783 234.306 145.89C234.306 141.996 237.463 138.84 241.356 138.84C245.25 138.84 248.406 141.996 248.406 145.89Z" fill="white"/>
</g>
<g filter="url(#filter10_d_601_10797)">
<path fill-rule="evenodd" clip-rule="evenodd" d="M190.9 142.988C189.546 141.714 187.415 141.778 186.141 143.132L156.417 174.711L137.866 154.892C136.595 153.534 134.465 153.464 133.107 154.735C131.75 156.005 131.68 158.136 132.95 159.493L153.953 181.93C154.588 182.609 155.476 182.995 156.406 182.996C157.336 182.997 158.225 182.614 158.862 181.937L191.044 147.747C192.318 146.393 192.254 144.262 190.9 142.988Z" fill="white"/>
</g>
<path fill-rule="evenodd" clip-rule="evenodd" d="M192.271 141.532C190.113 139.5 186.716 139.603 184.685 141.761L156.421 171.788L139.326 153.525C137.3 151.361 133.904 151.249 131.741 153.275C129.577 155.3 129.465 158.696 131.49 160.86L152.493 183.297C153.506 184.379 154.921 184.994 156.403 184.996C157.885 184.998 159.302 184.387 160.318 183.308L192.5 149.118C194.532 146.96 194.429 143.563 192.271 141.532ZM137.866 154.892C136.595 153.534 134.465 153.464 133.107 154.735C131.75 156.005 131.68 158.136 132.95 159.493L153.953 181.93C154.588 182.609 155.476 182.995 156.406 182.996C157.336 182.997 158.225 182.614 158.862 181.937L191.044 147.747C192.318 146.393 192.254 144.262 190.9 142.988C189.546 141.714 187.415 141.778 186.141 143.132L156.417 174.711L137.866 154.892Z" fill="url(#paint4_linear_601_10797)"/>
</g>
<defs>
<filter id="filter0_d_601_10797" x="48.644" y="48.6436" width="222.712" height="222.712" filterUnits="userSpaceOnUse" color-interpolation-filters="sRGB">
<feFlood flood-opacity="0" result="BackgroundImageFix"/>
<feColorMatrix in="SourceAlpha" type="matrix" values="0 0 0 0 0 0 0 0 0 0 0 0 0 0 0 0 0 0 127 0" result="hardAlpha"/>
<feOffset/>
<feGaussianBlur stdDeviation="15"/>
<feComposite in2="hardAlpha" operator="out"/>
<feColorMatrix type="matrix" values="0 0 0 0 1 0 0 0 0 0.368627 0 0 0 0 0.282353 0 0 0 0.5 0"/>
<feBlend mode="normal" in2="BackgroundImageFix" result="effect1_dropShadow_601_10797"/>
<feBlend mode="normal" in="SourceGraphic" in2="effect1_dropShadow_601_10797" result="shape"/>
</filter>
<filter id="filter1_dd_601_10797" x="69.7249" y="69.7246" width="180.55" height="180.55" filterUnits="userSpaceOnUse" color-interpolation-filters="sRGB">
<feFlood flood-opacity="0" result="BackgroundImageFix"/>
<feColorMatrix in="SourceAlpha" type="matrix" values="0 0 0 0 0 0 0 0 0 0 0 0 0 0 0 0 0 0 127 0" result="hardAlpha"/>
<feOffset/>
<feGaussianBlur stdDeviation="15"/>
<feComposite in2="hardAlpha" operator="out"/>
<feColorMatrix type="matrix" values="0 0 0 0 0.87451 0 0 0 0 0.329412 0 0 0 0 0.219608 0 0 0 1 0"/>
<feBlend mode="normal" in2="BackgroundImageFix" result="effect1_dropShadow_601_10797"/>
<feColorMatrix in="SourceAlpha" type="matrix" values="0 0 0 0 0 0 0 0 0 0 0 0 0 0 0 0 0 0 127 0" result="hardAlpha"/>
<feOffset/>
<feGaussianBlur stdDeviation="5"/>
<feComposite in2="hardAlpha" operator="out"/>
<feColorMatrix type="matrix" values="0 0 0 0 1 0 0 0 0 1 0 0 0 0 1 0 0 0 0.8 0"/>
<feBlend mode="normal" in2="effect1_dropShadow_601_10797" result="effect2_dropShadow_601_10797"/>
<feBlend mode="normal" in="SourceGraphic" in2="effect2_dropShadow_601_10797" result="shape"/>
</filter>
<filter id="filter2_df_601_10797" x="190.222" y="105.422" width="42.0532" height="42.0532" filterUnits="userSpaceOnUse" color-interpolation-filters="sRGB">
<feFlood flood-opacity="0" result="BackgroundImageFix"/>
<feColorMatrix in="SourceAlpha" type="matrix" values="0 0 0 0 0 0 0 0 0 0 0 0 0 0 0 0 0 0 127 0" result="hardAlpha"/>
<feOffset/>
<feGaussianBlur stdDeviation="5"/>
<feComposite in2="hardAlpha" operator="out"/>
<feColorMatrix type="matrix" values="0 0 0 0 1 0 0 0 0 0.368627 0 0 0 0 0.282353 0 0 0 1 0"/>
<feBlend mode="normal" in2="BackgroundImageFix" result="effect1_dropShadow_601_10797"/>
<feBlend mode="normal" in="SourceGraphic" in2="effect1_dropShadow_601_10797" result="shape"/>
<feGaussianBlur stdDeviation="0.5" result="effect2_foregroundBlur_601_10797"/>
</filter>
<filter id="filter3_df_601_10797" x="82.418" y="145.74" width="49.9789" height="49.979" filterUnits="userSpaceOnUse" color-interpolation-filters="sRGB">
<feFlood flood-opacity="0" result="BackgroundImageFix"/>
<feColorMatrix in="SourceAlpha" type="matrix" values="0 0 0 0 0 0 0 0 0 0 0 0 0 0 0 0 0 0 127 0" result="hardAlpha"/>
<feOffset/>
<feGaussianBlur stdDeviation="5"/>
<feComposite in2="hardAlpha" operator="out"/>
<feColorMatrix type="matrix" values="0 0 0 0 1 0 0 0 0 0.368627 0 0 0 0 0.282353 0 0 0 1 0"/>
<feBlend mode="normal" in2="BackgroundImageFix" result="effect1_dropShadow_601_10797"/>
<feBlend mode="normal" in="SourceGraphic" in2="effect1_dropShadow_601_10797" result="shape"/>
<feGaussianBlur stdDeviation="0.5" result="effect2_foregroundBlur_601_10797"/>
</filter>
<filter id="filter4_df_601_10797" x="161.337" y="160.074" width="133.015" height="133.015" filterUnits="userSpaceOnUse" color-interpolation-filters="sRGB">
<feFlood flood-opacity="0" result="BackgroundImageFix"/>
<feColorMatrix in="SourceAlpha" type="matrix" values="0 0 0 0 0 0 0 0 0 0 0 0 0 0 0 0 0 0 127 0" result="hardAlpha"/>
<feOffset/>
<feGaussianBlur stdDeviation="5"/>
<feComposite in2="hardAlpha" operator="out"/>
<feColorMatrix type="matrix" values="0 0 0 0 1 0 0 0 0 0.368627 0 0 0 0 0.282353 0 0 0 1 0"/>
<feBlend mode="normal" in2="BackgroundImageFix" result="effect1_dropShadow_601_10797"/>
<feBlend mode="normal" in="SourceGraphic" in2="effect1_dropShadow_601_10797" result="shape"/>
<feGaussianBlur stdDeviation="0.5" result="effect2_foregroundBlur_601_10797"/>
</filter>
<filter id="filter5_df_601_10797" x="55.2041" y="39.0928" width="116.796" height="116.796" filterUnits="userSpaceOnUse" color-interpolation-filters="sRGB">
<feFlood flood-opacity="0" result="BackgroundImageFix"/>
<feColorMatrix in="SourceAlpha" type="matrix" values="0 0 0 0 0 0 0 0 0 0 0 0 0 0 0 0 0 0 127 0" result="hardAlpha"/>
<feOffset/>
<feGaussianBlur stdDeviation="5"/>
<feComposite in2="hardAlpha" operator="out"/>
<feColorMatrix type="matrix" values="0 0 0 0 1 0 0 0 0 0.368627 0 0 0 0 0.282353 0 0 0 1 0"/>
<feBlend mode="normal" in2="BackgroundImageFix" result="effect1_dropShadow_601_10797"/>
<feBlend mode="normal" in="SourceGraphic" in2="effect1_dropShadow_601_10797" result="shape"/>
<feGaussianBlur stdDeviation="0.5" result="effect2_foregroundBlur_601_10797"/>
</filter>
<filter id="filter6_ddf_601_10797" x="249.892" y="144.354" width="40.0168" height="40.0171" filterUnits="userSpaceOnUse" color-interpolation-filters="sRGB">
<feFlood flood-opacity="0" result="BackgroundImageFix"/>
<feColorMatrix in="SourceAlpha" type="matrix" values="0 0 0 0 0 0 0 0 0 0 0 0 0 0 0 0 0 0 127 0" result="hardAlpha"/>
<feOffset/>
<feGaussianBlur stdDeviation="8"/>
<feComposite in2="hardAlpha" operator="out"/>
<feColorMatrix type="matrix" values="0 0 0 0 1 0 0 0 0 0.368627 0 0 0 0 0.282353 0 0 0 1 0"/>
<feBlend mode="normal" in2="BackgroundImageFix" result="effect1_dropShadow_601_10797"/>
<feColorMatrix in="SourceAlpha" type="matrix" values="0 0 0 0 0 0 0 0 0 0 0 0 0 0 0 0 0 0 127 0" result="hardAlpha"/>
<feOffset/>
<feGaussianBlur stdDeviation="2"/>
<feComposite in2="hardAlpha" operator="out"/>
<feColorMatrix type="matrix" values="0 0 0 0 1 0 0 0 0 0.368627 0 0 0 0 0.282353 0 0 0 1 0"/>
<feBlend mode="normal" in2="effect1_dropShadow_601_10797" result="effect2_dropShadow_601_10797"/>
<feBlend mode="normal" in="SourceGraphic" in2="effect2_dropShadow_601_10797" result="shape"/>
<feGaussianBlur stdDeviation="0.5" result="effect3_foregroundBlur_601_10797"/>
</filter>
<filter id="filter7_ddf_601_10797" x="76.7355" y="113.304" width="39.8527" height="39.8525" filterUnits="userSpaceOnUse" color-interpolation-filters="sRGB">
<feFlood flood-opacity="0" result="BackgroundImageFix"/>
<feColorMatrix in="SourceAlpha" type="matrix" values="0 0 0 0 0 0 0 0 0 0 0 0 0 0 0 0 0 0 127 0" result="hardAlpha"/>
<feOffset/>
<feGaussianBlur stdDeviation="8"/>
<feComposite in2="hardAlpha" operator="out"/>
<feColorMatrix type="matrix" values="0 0 0 0 1 0 0 0 0 0.368627 0 0 0 0 0.282353 0 0 0 1 0"/>
<feBlend mode="normal" in2="BackgroundImageFix" result="effect1_dropShadow_601_10797"/>
<feColorMatrix in="SourceAlpha" type="matrix" values="0 0 0 0 0 0 0 0 0 0 0 0 0 0 0 0 0 0 127 0" result="hardAlpha"/>
<feOffset/>
<feGaussianBlur stdDeviation="2"/>
<feComposite in2="hardAlpha" operator="out"/>
<feColorMatrix type="matrix" values="0 0 0 0 1 0 0 0 0 0.368627 0 0 0 0 0.282353 0 0 0 1 0"/>
<feBlend mode="normal" in2="effect1_dropShadow_601_10797" result="effect2_dropShadow_601_10797"/>
<feBlend mode="normal" in="SourceGraphic" in2="effect2_dropShadow_601_10797" result="shape"/>
<feGaussianBlur stdDeviation="0.5" result="effect3_foregroundBlur_601_10797"/>
</filter>
<filter id="filter8_df_601_10797" x="45.5099" y="147.997" width="32.7321" height="32.7319" filterUnits="userSpaceOnUse" color-interpolation-filters="sRGB">
<feFlood flood-opacity="0" result="BackgroundImageFix"/>
<feColorMatrix in="SourceAlpha" type="matrix" values="0 0 0 0 0 0 0 0 0 0 0 0 0 0 0 0 0 0 127 0" result="hardAlpha"/>
<feOffset/>
<feGaussianBlur stdDeviation="5"/>
<feComposite in2="hardAlpha" operator="out"/>
<feColorMatrix type="matrix" values="0 0 0 0 1 0 0 0 0 0.368627 0 0 0 0 0.282353 0 0 0 1 0"/>
<feBlend mode="normal" in2="BackgroundImageFix" result="effect1_dropShadow_601_10797"/>
<feBlend mode="normal" in="SourceGraphic" in2="effect1_dropShadow_601_10797" result="shape"/>
<feGaussianBlur stdDeviation="0.5" result="effect2_foregroundBlur_601_10797"/>
</filter>
<filter id="filter9_df_601_10797" x="224.306" y="128.84" width="34.0994" height="34.0991" filterUnits="userSpaceOnUse" color-interpolation-filters="sRGB">
<feFlood flood-opacity="0" result="BackgroundImageFix"/>
<feColorMatrix in="SourceAlpha" type="matrix" values="0 0 0 0 0 0 0 0 0 0 0 0 0 0 0 0 0 0 127 0" result="hardAlpha"/>
<feOffset/>
<feGaussianBlur stdDeviation="5"/>
<feComposite in2="hardAlpha" operator="out"/>
<feColorMatrix type="matrix" values="0 0 0 0 1 0 0 0 0 0.368627 0 0 0 0 0.282353 0 0 0 1 0"/>
<feBlend mode="normal" in2="BackgroundImageFix" result="effect1_dropShadow_601_10797"/>
<feBlend mode="normal" in="SourceGraphic" in2="effect1_dropShadow_601_10797" result="shape"/>
<feGaussianBlur stdDeviation="0.5" result="effect2_foregroundBlur_601_10797"/>
</filter>
<filter id="filter10_d_601_10797" x="112.041" y="122.073" width="99.9176" height="80.9229" filterUnits="userSpaceOnUse" color-interpolation-filters="sRGB">
<feFlood flood-opacity="0" result="BackgroundImageFix"/>
<feColorMatrix in="SourceAlpha" type="matrix" values="0 0 0 0 0 0 0 0 0 0 0 0 0 0 0 0 0 0 127 0" result="hardAlpha"/>
<feOffset/>
<feGaussianBlur stdDeviation="10"/>
<feComposite in2="hardAlpha" operator="out"/>
<feColorMatrix type="matrix" values="0 0 0 0 0.87451 0 0 0 0 0.329412 0 0 0 0 0.219608 0 0 0 1 0"/>
<feBlend mode="normal" in2="BackgroundImageFix" result="effect1_dropShadow_601_10797"/>
<feBlend mode="normal" in="SourceGraphic" in2="effect1_dropShadow_601_10797" result="shape"/>
</filter>
<radialGradient id="paint0_radial_601_10797" cx="0" cy="0" r="1" gradientUnits="userSpaceOnUse" gradientTransform="translate(160 160) rotate(-45) scale(158.95)">
<stop stop-color="#DF5438" stop-opacity="0.3"/>
<stop offset="1" stop-color="#DF5438" stop-opacity="0"/>
</radialGradient>
<linearGradient id="paint1_linear_601_10797" x1="80.644" y1="80.6436" x2="239.356" y2="239.356" gradientUnits="userSpaceOnUse">
<stop stop-color="white"/>
<stop offset="1" stop-color="#DF5438"/>
</linearGradient>
<linearGradient id="paint2_linear_601_10797" x1="160" y1="153.238" x2="121.192" y2="87.1237" gradientUnits="userSpaceOnUse">
<stop stop-color="#1A1A1B"/>
<stop offset="1" stop-color="#DF5438"/>
</linearGradient>
<linearGradient id="paint3_linear_601_10797" x1="220.275" y1="242.384" x2="137.054" y2="80.5308" gradientUnits="userSpaceOnUse">
<stop stop-color="#DC3C26"/>
<stop offset="1" stop-color="white"/>
</linearGradient>
<linearGradient id="paint4_linear_601_10797" x1="177.564" y1="184.996" x2="122.706" y2="120.139" gradientUnits="userSpaceOnUse">
<stop stop-color="#DF5438"/>
<stop offset="1" stop-color="white"/>
</linearGradient>
<clipPath id="clip0_601_10797">
<rect width="320" height="320" fill="white"/>
</clipPath>
</defs>
</svg>
