<svg width="320" height="320" viewBox="0 0 320 320" fill="none" xmlns="http://www.w3.org/2000/svg">
<g clip-path="url(#clip0_601_10795)">
<path d="M320 160C320 248.366 248.366 320 160 320C71.6344 320 0 248.366 0 160C0 71.6344 71.6344 0 160 0C248.366 0 320 71.6344 320 160Z" fill="url(#paint0_radial_601_10795)"/>
<g filter="url(#filter0_d_601_10795)">
<path fill-rule="evenodd" clip-rule="evenodd" d="M241.356 160.001C241.356 204.932 204.932 241.357 160 241.357C115.068 241.357 78.6439 204.932 78.6439 160.001C78.6439 115.069 115.068 78.6445 160 78.6445C204.932 78.6445 241.356 115.069 241.356 160.001ZM160 239.357C203.827 239.357 239.356 203.828 239.356 160.001C239.356 116.173 203.827 80.6445 160 80.6445C116.173 80.6445 80.6439 116.173 80.6439 160.001C80.6439 203.828 116.173 239.357 160 239.357Z" fill="url(#paint1_linear_601_10795)" fill-opacity="0.3" shape-rendering="crispEdges"/>
</g>
<g filter="url(#filter1_dd_601_10795)">
<path d="M220.275 160C220.275 193.289 193.289 220.275 160 220.275C126.711 220.275 99.7247 193.289 99.7247 160C99.7247 126.711 126.711 99.7246 160 99.7246C193.289 99.7246 220.275 126.711 220.275 160Z" fill="url(#paint2_linear_601_10795)"/>
</g>
<path fill-rule="evenodd" clip-rule="evenodd" d="M160 100.725C127.263 100.725 100.725 127.263 100.725 160C100.725 192.736 127.263 219.275 160 219.275C192.736 219.275 219.275 192.736 219.275 160C219.275 127.263 192.736 100.725 160 100.725ZM98.7247 160C98.7247 126.158 126.159 98.7246 160 98.7246C193.841 98.7246 221.275 126.158 221.275 160C221.275 193.841 193.841 221.275 160 221.275C126.159 221.275 98.7247 193.841 98.7247 160Z" fill="url(#paint3_linear_601_10795)"/>
<g opacity="0.3" filter="url(#filter2_df_601_10795)">
<path d="M224.513 138.043C224.513 144.133 219.577 149.07 213.487 149.07C207.397 149.07 202.46 144.133 202.46 138.043C202.46 131.953 207.397 127.017 213.487 127.017C219.577 127.017 224.513 131.953 224.513 138.043Z" fill="#DF5438"/>
</g>
<g opacity="0.6" filter="url(#filter3_df_601_10795)">
<path d="M124.64 155.374C124.64 163.653 117.929 170.364 109.651 170.364C101.372 170.364 94.6613 163.653 94.6613 155.374C94.6613 147.096 101.372 140.385 109.651 140.385C117.929 140.385 124.64 147.096 124.64 155.374Z" fill="#DF5438"/>
</g>
<g opacity="0.1" filter="url(#filter4_df_601_10795)">
<circle cx="116.288" cy="205.895" r="50.0459" fill="#DF5438"/>
</g>
<g opacity="0.1" filter="url(#filter5_df_601_10795)">
<path d="M237.132 90.358C237.132 117.087 215.463 138.756 188.734 138.756C162.004 138.756 140.336 117.087 140.336 90.358C140.336 63.6285 162.004 41.96 188.734 41.96C215.463 41.96 237.132 63.6285 237.132 90.358Z" fill="#DF5438"/>
</g>
<g filter="url(#filter6_ddf_601_10795)">
<rect x="247.724" y="139.093" width="6.44108" height="6.44108" rx="1" transform="rotate(-61.6769 247.724 139.093)" fill="white"/>
</g>
<g opacity="0.8" filter="url(#filter7_ddf_601_10795)">
<rect x="86.1737" y="177.238" width="6.44108" height="6.44108" rx="1" transform="rotate(-23.7137 86.1737 177.238)" fill="white"/>
</g>
<g filter="url(#filter8_df_601_10795)">
<circle cx="60.216" cy="162.215" r="6.36604" fill="white"/>
</g>
<g filter="url(#filter9_df_601_10795)">
<circle cx="239.356" cy="154.692" r="7.04968" fill="white"/>
</g>
<g filter="url(#filter10_d_601_10795)">
<path d="M148.21 122.38L196.101 134.287C197.173 134.554 197.826 135.639 197.559 136.711L190.064 166.857C189.797 167.929 188.712 168.582 187.641 168.315L139.75 156.408L148.21 122.38Z" fill="white"/>
<path fill-rule="evenodd" clip-rule="evenodd" d="M146.269 121.897C146.536 120.826 147.621 120.173 148.693 120.439L196.584 132.347C198.728 132.88 200.033 135.05 199.5 137.194L192.005 167.34C191.472 169.484 189.302 170.789 187.158 170.256L139.267 158.349C138.195 158.082 137.542 156.997 137.809 155.925L146.269 121.897ZM148.21 122.38L139.75 156.408L187.64 168.315C188.712 168.582 189.797 167.929 190.064 166.857L197.559 136.711C197.826 135.639 197.173 134.554 196.101 134.288L148.21 122.38Z" fill="url(#paint4_linear_601_10795)"/>
<path d="M148.21 122.377L159.553 125.198L156.733 136.54L145.39 133.72L148.21 122.377Z" fill="#1A1A1B"/>
<path d="M170.896 128.018L182.238 130.838L179.418 142.181L168.075 139.361L170.896 128.018Z" fill="#1A1A1B"/>
<path d="M193.58 133.658L196.101 134.285C197.173 134.551 197.826 135.636 197.56 136.708L195.222 146.11L190.76 145L193.58 133.658Z" fill="#1A1A1B"/>
<path d="M142.57 145.065L153.912 147.885L151.092 159.228L139.749 156.408L142.57 145.065Z" fill="#1A1A1B"/>
<path d="M165.255 150.705L176.597 153.525L173.777 164.867L162.434 162.047L165.255 150.705Z" fill="#1A1A1B"/>
<path d="M187.94 156.344L192.402 157.454L190.064 166.855C189.797 167.927 188.712 168.58 187.64 168.314L185.12 167.687L187.94 156.344Z" fill="#1A1A1B"/>
<path d="M156.733 136.54L168.075 139.361L165.255 150.703L153.912 147.883L156.733 136.54Z" fill="#1A1A1B"/>
<path d="M179.418 142.181L190.761 145.001L187.94 156.344L176.598 153.524L179.418 142.181Z" fill="#1A1A1B"/>
<path d="M144.434 120.073C144.715 118.942 145.86 118.253 146.991 118.534C148.123 118.815 148.811 119.96 148.53 121.091L133.984 179.593C133.703 180.724 132.558 181.413 131.427 181.132C130.296 180.851 129.607 179.706 129.888 178.575L144.434 120.073Z" fill="#1A1A1B"/>
<path fill-rule="evenodd" clip-rule="evenodd" d="M150.471 121.574L135.925 180.076C135.378 182.279 133.148 183.621 130.945 183.073C128.741 182.525 127.4 180.295 127.947 178.092L142.493 119.59C143.041 117.387 145.271 116.045 147.474 116.593C149.677 117.141 151.019 119.371 150.471 121.574ZM146.991 118.534C145.86 118.253 144.715 118.942 144.434 120.073L129.888 178.575C129.607 179.706 130.296 180.851 131.427 181.132C132.558 181.413 133.703 180.724 133.984 179.593L148.53 121.091C148.811 119.96 148.122 118.815 146.991 118.534Z" fill="#DF5438"/>
<path d="M125.851 177.203C125.984 176.667 126.527 176.34 127.063 176.474L137.465 179.06C138.001 179.193 138.327 179.736 138.194 180.272L137.509 183.028C137.376 183.564 136.833 183.89 136.297 183.757L125.895 181.171C125.359 181.037 125.032 180.495 125.166 179.959L125.851 177.203Z" fill="#1A1A1B"/>
<path fill-rule="evenodd" clip-rule="evenodd" d="M127.545 174.533L137.948 177.119C139.555 177.519 140.535 179.147 140.135 180.755L139.45 183.511C139.05 185.119 137.422 186.098 135.814 185.698L125.412 183.112C123.804 182.712 122.825 181.084 123.225 179.477L123.91 176.72C124.31 175.113 125.937 174.133 127.545 174.533ZM127.063 176.474C126.527 176.341 125.984 176.667 125.851 177.203L125.166 179.959C125.032 180.495 125.359 181.038 125.895 181.171L136.297 183.757C136.833 183.891 137.376 183.564 137.509 183.028L138.194 180.272C138.327 179.736 138.001 179.194 137.465 179.06L127.063 176.474Z" fill="#DF5438"/>
<path d="M122.644 182.473C122.777 181.937 123.32 181.611 123.856 181.744L137.831 185.219C138.367 185.352 138.693 185.895 138.56 186.431L137.286 191.554C137.153 192.09 136.611 192.416 136.075 192.283L122.099 188.808C121.563 188.675 121.237 188.132 121.37 187.596L122.644 182.473Z" fill="#1A1A1B"/>
<path fill-rule="evenodd" clip-rule="evenodd" d="M124.338 179.803L138.313 183.278C139.921 183.678 140.901 185.306 140.501 186.913L139.227 192.037C138.827 193.644 137.2 194.624 135.592 194.224L121.617 190.749C120.009 190.349 119.029 188.722 119.429 187.114L120.703 181.991C121.103 180.383 122.73 179.404 124.338 179.803ZM123.856 181.744C123.32 181.611 122.777 181.938 122.644 182.474L121.37 187.597C121.237 188.133 121.563 188.675 122.099 188.808L136.075 192.283C136.61 192.416 137.153 192.09 137.286 191.554L138.56 186.431C138.693 185.895 138.367 185.352 137.831 185.219L123.856 181.744Z" fill="#DF5438"/>
</g>
</g>
<defs>
<filter id="filter0_d_601_10795" x="48.6439" y="48.6445" width="222.712" height="222.712" filterUnits="userSpaceOnUse" color-interpolation-filters="sRGB">
<feFlood flood-opacity="0" result="BackgroundImageFix"/>
<feColorMatrix in="SourceAlpha" type="matrix" values="0 0 0 0 0 0 0 0 0 0 0 0 0 0 0 0 0 0 127 0" result="hardAlpha"/>
<feOffset/>
<feGaussianBlur stdDeviation="15"/>
<feComposite in2="hardAlpha" operator="out"/>
<feColorMatrix type="matrix" values="0 0 0 0 1 0 0 0 0 0.368627 0 0 0 0 0.282353 0 0 0 0.5 0"/>
<feBlend mode="normal" in2="BackgroundImageFix" result="effect1_dropShadow_601_10795"/>
<feBlend mode="normal" in="SourceGraphic" in2="effect1_dropShadow_601_10795" result="shape"/>
</filter>
<filter id="filter1_dd_601_10795" x="69.7247" y="69.7246" width="180.55" height="180.55" filterUnits="userSpaceOnUse" color-interpolation-filters="sRGB">
<feFlood flood-opacity="0" result="BackgroundImageFix"/>
<feColorMatrix in="SourceAlpha" type="matrix" values="0 0 0 0 0 0 0 0 0 0 0 0 0 0 0 0 0 0 127 0" result="hardAlpha"/>
<feOffset/>
<feGaussianBlur stdDeviation="15"/>
<feComposite in2="hardAlpha" operator="out"/>
<feColorMatrix type="matrix" values="0 0 0 0 0.87451 0 0 0 0 0.329412 0 0 0 0 0.219608 0 0 0 1 0"/>
<feBlend mode="normal" in2="BackgroundImageFix" result="effect1_dropShadow_601_10795"/>
<feColorMatrix in="SourceAlpha" type="matrix" values="0 0 0 0 0 0 0 0 0 0 0 0 0 0 0 0 0 0 127 0" result="hardAlpha"/>
<feOffset/>
<feGaussianBlur stdDeviation="5"/>
<feComposite in2="hardAlpha" operator="out"/>
<feColorMatrix type="matrix" values="0 0 0 0 1 0 0 0 0 1 0 0 0 0 1 0 0 0 0.8 0"/>
<feBlend mode="normal" in2="effect1_dropShadow_601_10795" result="effect2_dropShadow_601_10795"/>
<feBlend mode="normal" in="SourceGraphic" in2="effect2_dropShadow_601_10795" result="shape"/>
</filter>
<filter id="filter2_df_601_10795" x="192.46" y="117.017" width="42.0532" height="42.0532" filterUnits="userSpaceOnUse" color-interpolation-filters="sRGB">
<feFlood flood-opacity="0" result="BackgroundImageFix"/>
<feColorMatrix in="SourceAlpha" type="matrix" values="0 0 0 0 0 0 0 0 0 0 0 0 0 0 0 0 0 0 127 0" result="hardAlpha"/>
<feOffset/>
<feGaussianBlur stdDeviation="5"/>
<feComposite in2="hardAlpha" operator="out"/>
<feColorMatrix type="matrix" values="0 0 0 0 1 0 0 0 0 0.368627 0 0 0 0 0.282353 0 0 0 1 0"/>
<feBlend mode="normal" in2="BackgroundImageFix" result="effect1_dropShadow_601_10795"/>
<feBlend mode="normal" in="SourceGraphic" in2="effect1_dropShadow_601_10795" result="shape"/>
<feGaussianBlur stdDeviation="0.5" result="effect2_foregroundBlur_601_10795"/>
</filter>
<filter id="filter3_df_601_10795" x="84.6613" y="130.385" width="49.9789" height="49.979" filterUnits="userSpaceOnUse" color-interpolation-filters="sRGB">
<feFlood flood-opacity="0" result="BackgroundImageFix"/>
<feColorMatrix in="SourceAlpha" type="matrix" values="0 0 0 0 0 0 0 0 0 0 0 0 0 0 0 0 0 0 127 0" result="hardAlpha"/>
<feOffset/>
<feGaussianBlur stdDeviation="5"/>
<feComposite in2="hardAlpha" operator="out"/>
<feColorMatrix type="matrix" values="0 0 0 0 1 0 0 0 0 0.368627 0 0 0 0 0.282353 0 0 0 1 0"/>
<feBlend mode="normal" in2="BackgroundImageFix" result="effect1_dropShadow_601_10795"/>
<feBlend mode="normal" in="SourceGraphic" in2="effect1_dropShadow_601_10795" result="shape"/>
<feGaussianBlur stdDeviation="0.5" result="effect2_foregroundBlur_601_10795"/>
</filter>
<filter id="filter4_df_601_10795" x="56.2418" y="145.849" width="120.092" height="120.092" filterUnits="userSpaceOnUse" color-interpolation-filters="sRGB">
<feFlood flood-opacity="0" result="BackgroundImageFix"/>
<feColorMatrix in="SourceAlpha" type="matrix" values="0 0 0 0 0 0 0 0 0 0 0 0 0 0 0 0 0 0 127 0" result="hardAlpha"/>
<feOffset/>
<feGaussianBlur stdDeviation="5"/>
<feComposite in2="hardAlpha" operator="out"/>
<feColorMatrix type="matrix" values="0 0 0 0 1 0 0 0 0 0.368627 0 0 0 0 0.282353 0 0 0 1 0"/>
<feBlend mode="normal" in2="BackgroundImageFix" result="effect1_dropShadow_601_10795"/>
<feBlend mode="normal" in="SourceGraphic" in2="effect1_dropShadow_601_10795" result="shape"/>
<feGaussianBlur stdDeviation="0.5" result="effect2_foregroundBlur_601_10795"/>
</filter>
<filter id="filter5_df_601_10795" x="130.336" y="31.96" width="116.796" height="116.796" filterUnits="userSpaceOnUse" color-interpolation-filters="sRGB">
<feFlood flood-opacity="0" result="BackgroundImageFix"/>
<feColorMatrix in="SourceAlpha" type="matrix" values="0 0 0 0 0 0 0 0 0 0 0 0 0 0 0 0 0 0 127 0" result="hardAlpha"/>
<feOffset/>
<feGaussianBlur stdDeviation="5"/>
<feComposite in2="hardAlpha" operator="out"/>
<feColorMatrix type="matrix" values="0 0 0 0 1 0 0 0 0 0.368627 0 0 0 0 0.282353 0 0 0 1 0"/>
<feBlend mode="normal" in2="BackgroundImageFix" result="effect1_dropShadow_601_10795"/>
<feBlend mode="normal" in="SourceGraphic" in2="effect1_dropShadow_601_10795" result="shape"/>
<feGaussianBlur stdDeviation="0.5" result="effect2_foregroundBlur_601_10795"/>
</filter>
<filter id="filter6_ddf_601_10795" x="232.078" y="117.777" width="40.0168" height="40.0166" filterUnits="userSpaceOnUse" color-interpolation-filters="sRGB">
<feFlood flood-opacity="0" result="BackgroundImageFix"/>
<feColorMatrix in="SourceAlpha" type="matrix" values="0 0 0 0 0 0 0 0 0 0 0 0 0 0 0 0 0 0 127 0" result="hardAlpha"/>
<feOffset/>
<feGaussianBlur stdDeviation="8"/>
<feComposite in2="hardAlpha" operator="out"/>
<feColorMatrix type="matrix" values="0 0 0 0 1 0 0 0 0 0.368627 0 0 0 0 0.282353 0 0 0 1 0"/>
<feBlend mode="normal" in2="BackgroundImageFix" result="effect1_dropShadow_601_10795"/>
<feColorMatrix in="SourceAlpha" type="matrix" values="0 0 0 0 0 0 0 0 0 0 0 0 0 0 0 0 0 0 127 0" result="hardAlpha"/>
<feOffset/>
<feGaussianBlur stdDeviation="2"/>
<feComposite in2="hardAlpha" operator="out"/>
<feColorMatrix type="matrix" values="0 0 0 0 1 0 0 0 0 0.368627 0 0 0 0 0.282353 0 0 0 1 0"/>
<feBlend mode="normal" in2="effect1_dropShadow_601_10795" result="effect2_dropShadow_601_10795"/>
<feBlend mode="normal" in="SourceGraphic" in2="effect2_dropShadow_601_10795" result="shape"/>
<feGaussianBlur stdDeviation="0.5" result="effect3_foregroundBlur_601_10795"/>
</filter>
<filter id="filter7_ddf_601_10795" x="70.4912" y="158.965" width="39.8527" height="39.8525" filterUnits="userSpaceOnUse" color-interpolation-filters="sRGB">
<feFlood flood-opacity="0" result="BackgroundImageFix"/>
<feColorMatrix in="SourceAlpha" type="matrix" values="0 0 0 0 0 0 0 0 0 0 0 0 0 0 0 0 0 0 127 0" result="hardAlpha"/>
<feOffset/>
<feGaussianBlur stdDeviation="8"/>
<feComposite in2="hardAlpha" operator="out"/>
<feColorMatrix type="matrix" values="0 0 0 0 1 0 0 0 0 0.368627 0 0 0 0 0.282353 0 0 0 1 0"/>
<feBlend mode="normal" in2="BackgroundImageFix" result="effect1_dropShadow_601_10795"/>
<feColorMatrix in="SourceAlpha" type="matrix" values="0 0 0 0 0 0 0 0 0 0 0 0 0 0 0 0 0 0 127 0" result="hardAlpha"/>
<feOffset/>
<feGaussianBlur stdDeviation="2"/>
<feComposite in2="hardAlpha" operator="out"/>
<feColorMatrix type="matrix" values="0 0 0 0 1 0 0 0 0 0.368627 0 0 0 0 0.282353 0 0 0 1 0"/>
<feBlend mode="normal" in2="effect1_dropShadow_601_10795" result="effect2_dropShadow_601_10795"/>
<feBlend mode="normal" in="SourceGraphic" in2="effect2_dropShadow_601_10795" result="shape"/>
<feGaussianBlur stdDeviation="0.5" result="effect3_foregroundBlur_601_10795"/>
</filter>
<filter id="filter8_df_601_10795" x="43.85" y="145.849" width="32.7321" height="32.7319" filterUnits="userSpaceOnUse" color-interpolation-filters="sRGB">
<feFlood flood-opacity="0" result="BackgroundImageFix"/>
<feColorMatrix in="SourceAlpha" type="matrix" values="0 0 0 0 0 0 0 0 0 0 0 0 0 0 0 0 0 0 127 0" result="hardAlpha"/>
<feOffset/>
<feGaussianBlur stdDeviation="5"/>
<feComposite in2="hardAlpha" operator="out"/>
<feColorMatrix type="matrix" values="0 0 0 0 1 0 0 0 0 0.368627 0 0 0 0 0.282353 0 0 0 1 0"/>
<feBlend mode="normal" in2="BackgroundImageFix" result="effect1_dropShadow_601_10795"/>
<feBlend mode="normal" in="SourceGraphic" in2="effect1_dropShadow_601_10795" result="shape"/>
<feGaussianBlur stdDeviation="0.5" result="effect2_foregroundBlur_601_10795"/>
</filter>
<filter id="filter9_df_601_10795" x="222.306" y="137.643" width="34.0994" height="34.0991" filterUnits="userSpaceOnUse" color-interpolation-filters="sRGB">
<feFlood flood-opacity="0" result="BackgroundImageFix"/>
<feColorMatrix in="SourceAlpha" type="matrix" values="0 0 0 0 0 0 0 0 0 0 0 0 0 0 0 0 0 0 127 0" result="hardAlpha"/>
<feOffset/>
<feGaussianBlur stdDeviation="5"/>
<feComposite in2="hardAlpha" operator="out"/>
<feColorMatrix type="matrix" values="0 0 0 0 1 0 0 0 0 0.368627 0 0 0 0 0.282353 0 0 0 1 0"/>
<feBlend mode="normal" in2="BackgroundImageFix" result="effect1_dropShadow_601_10795"/>
<feBlend mode="normal" in="SourceGraphic" in2="effect1_dropShadow_601_10795" result="shape"/>
<feGaussianBlur stdDeviation="0.5" result="effect2_foregroundBlur_601_10795"/>
</filter>
<filter id="filter10_d_601_10795" x="99.3398" y="96.4707" width="120.28" height="117.843" filterUnits="userSpaceOnUse" color-interpolation-filters="sRGB">
<feFlood flood-opacity="0" result="BackgroundImageFix"/>
<feColorMatrix in="SourceAlpha" type="matrix" values="0 0 0 0 0 0 0 0 0 0 0 0 0 0 0 0 0 0 127 0" result="hardAlpha"/>
<feOffset/>
<feGaussianBlur stdDeviation="10"/>
<feComposite in2="hardAlpha" operator="out"/>
<feColorMatrix type="matrix" values="0 0 0 0 0.87451 0 0 0 0 0.329412 0 0 0 0 0.219608 0 0 0 1 0"/>
<feBlend mode="normal" in2="BackgroundImageFix" result="effect1_dropShadow_601_10795"/>
<feBlend mode="normal" in="SourceGraphic" in2="effect1_dropShadow_601_10795" result="shape"/>
</filter>
<radialGradient id="paint0_radial_601_10795" cx="0" cy="0" r="1" gradientUnits="userSpaceOnUse" gradientTransform="translate(160 160) rotate(-45) scale(158.95)">
<stop stop-color="#DF5438" stop-opacity="0.3"/>
<stop offset="1" stop-color="#DF5438" stop-opacity="0"/>
</radialGradient>
<linearGradient id="paint1_linear_601_10795" x1="80.6439" y1="80.6445" x2="239.356" y2="239.357" gradientUnits="userSpaceOnUse">
<stop stop-color="white"/>
<stop offset="1" stop-color="#DF5438"/>
</linearGradient>
<linearGradient id="paint2_linear_601_10795" x1="160" y1="153.238" x2="121.192" y2="87.1237" gradientUnits="userSpaceOnUse">
<stop stop-color="#1A1A1B"/>
<stop offset="1" stop-color="#DF5438"/>
</linearGradient>
<linearGradient id="paint3_linear_601_10795" x1="220.275" y1="242.384" x2="137.054" y2="80.5308" gradientUnits="userSpaceOnUse">
<stop stop-color="#DC3C26"/>
<stop offset="1" stop-color="white"/>
</linearGradient>
<linearGradient id="paint4_linear_601_10795" x1="144.931" y1="139.24" x2="190.403" y2="170.246" gradientUnits="userSpaceOnUse">
<stop stop-color="#DF5438"/>
<stop offset="1" stop-color="white"/>
</linearGradient>
<clipPath id="clip0_601_10795">
<rect width="320" height="320" fill="white"/>
</clipPath>
</defs>
</svg>
