<svg width="90" height="22" viewBox="0 0 90 22" fill="none" xmlns="http://www.w3.org/2000/svg">
<path fill-rule="evenodd" clip-rule="evenodd" d="M71.1883 0.844121C71.1395 0.77611 71.0625 0.736328 70.9791 0.736328H64.9608C64.9043 0.736328 64.8479 0.755576 64.803 0.790223L62.9076 2.25952L72.1879 2.25182L71.1883 0.844121ZM67.68 17.5914L71.9377 2.63535L63.0437 2.64305L58.6345 17.5901H67.68V17.5914ZM64.2319 4.42802H69.7164L66.3993 15.8783H60.9148L64.2319 4.42802ZM72.3727 2.51234L73.4455 4.02269L73.4442 4.02398C73.4891 4.08686 73.5032 4.1677 73.4814 4.24341L70.0154 16.2069C70.0013 16.2583 69.9692 16.3045 69.9269 16.3378L68.0123 17.8277L72.3727 2.51234ZM60.7031 3.96799C60.6607 4.00136 60.6286 4.04755 60.6132 4.09888L57.1472 16.0624C57.1254 16.1368 57.1395 16.2177 57.1844 16.2818L58.1969 17.7165L62.7126 2.41016L60.7031 3.96799ZM59.6469 19.5871C59.5635 19.5871 59.4865 19.546 59.4378 19.478L58.3791 17.9779H67.8211L65.8231 19.5332C65.7782 19.5678 65.7217 19.5871 65.6653 19.5871H59.6469Z" fill="#DF5438"/>
<path fill-rule="evenodd" clip-rule="evenodd" d="M85.2538 1.32478C85.2859 1.2157 85.386 1.13999 85.5002 1.13999H85.5014H86.9553L81.7698 18.9332L77.6519 1.26061L79.1161 0.90516C79.1354 0.900027 79.1559 0.897461 79.1764 0.897461C79.2239 0.897461 79.2714 0.911576 79.3124 0.937241C79.3702 0.973171 79.4125 1.0322 79.4266 1.10021L81.9341 12.784L85.2538 1.32478ZM75.5025 1.91419C75.5282 1.82565 75.5988 1.75763 75.6886 1.73582V1.7371L77.3889 1.3239L71.9839 20.0051H70.6019C70.521 20.0051 70.4453 19.9666 70.3966 19.9025C70.3478 19.8383 70.3324 19.7536 70.3555 19.6766L75.5025 1.91419ZM72.3856 20.0038H73.7817C73.8959 20.0038 73.996 19.9281 74.0281 19.819L77.3234 8.44705L79.8373 20.1604C79.8514 20.2284 79.8937 20.2874 79.9528 20.3246C79.9938 20.3503 80.0413 20.3631 80.0888 20.3631C80.1093 20.3631 80.1311 20.3605 80.1504 20.3554L81.6197 19.9884L77.5031 2.31707L72.3856 20.0038ZM88.68 1.13985C88.8224 1.13985 88.9367 1.25534 88.9367 1.3965C88.9367 1.42601 88.9315 1.45424 88.9225 1.48119L83.7524 19.3245C83.7267 19.4117 83.6562 19.4797 83.5676 19.5016L81.8802 19.9237L87.3544 1.13985H88.68Z" fill="#DF5438"/>
<path fill-rule="evenodd" clip-rule="evenodd" d="M88.3117 15.888H89.6154V15.8867C89.7361 15.8867 89.8503 15.9445 89.9234 16.0407C89.9953 16.1382 90.0184 16.2627 89.985 16.3795L88.9828 19.8403C88.9353 20.0059 88.7852 20.1188 88.6132 20.1188H87.1234L88.3117 15.888ZM86.0519 16.1659C86.0994 16.0004 86.2495 15.8875 86.4215 15.8875V15.8888H87.9113L86.723 20.1196H85.4193C85.2987 20.1196 85.1845 20.0618 85.1113 19.9656C85.0395 19.868 85.0164 19.7436 85.0497 19.6268L86.0519 16.1659Z" fill="#DF5438"/>
<path d="M0.203308 19.4721H2.90589C2.90589 19.4721 2.91614 19.4721 2.92255 19.4721H6.09798C6.18896 19.4721 6.2697 19.4119 6.29532 19.3247L10.6369 4.3369H16.2202L14.7875 9.28202L11.5518 8.40679C11.5339 8.40166 11.516 8.3991 11.498 8.3991C11.4429 8.3991 11.3891 8.42088 11.3506 8.46189L8.78262 11.1235C8.72239 11.1863 8.7083 11.2785 8.74674 11.3567L11.407 16.7401L10.1986 17.6038C10.1333 17.6512 10.1012 17.7319 10.1166 17.8101L10.7676 21.0996C10.7804 21.1662 10.8265 21.2226 10.8893 21.2495C10.915 21.2597 10.9419 21.2649 10.9688 21.2649C11.0085 21.2649 11.0469 21.2533 11.0815 21.2315L15.318 18.4457L14.5581 17.5525C14.4274 17.3987 14.412 17.1719 14.5235 17.0015L15.3142 15.7892L13.2293 12.0564L14.562 12.4421C14.5812 12.4472 14.6004 12.4498 14.6196 12.4498C14.6594 12.4498 14.6978 12.4382 14.7311 12.4164L18.0565 10.2508C18.0975 10.2239 18.1282 10.1829 18.1411 10.1355L19.8646 4.18569C19.8825 4.12546 19.871 4.06139 19.8351 4.01013L17.5849 0.824443C17.5465 0.770622 17.4837 0.737305 17.417 0.737305H11.407C11.3609 0.737305 11.3173 0.752682 11.2814 0.780874L7.18209 3.97041C7.14749 3.99732 7.12314 4.0332 7.11161 4.07548L4.19375 14.1477L3.67476 15.9366H1.58727C1.50654 15.9366 1.43222 15.984 1.40018 16.0583L0.0174976 19.1851C-0.0106944 19.2479 -0.00428699 19.3222 0.0328751 19.3799C0.0700371 19.4375 0.135391 19.4734 0.204589 19.4734L0.203308 19.4721Z" fill="#7A53FC"/>
<path d="M43.319 12.2063C43.319 12.0935 43.228 12.0013 43.114 12.0013H39.9385C39.8476 12.0013 39.7668 12.0615 39.7412 12.1486L38.6661 15.8584H33.0828L36.4261 4.32152H42.0094L40.9957 7.82116C40.9778 7.88267 40.9906 7.94931 41.0291 8.00185C41.0675 8.05311 41.129 8.08386 41.1931 8.08386H44.3685C44.4595 8.08386 44.5402 8.02363 44.5659 7.9365L45.6564 4.17544C45.6743 4.11521 45.6628 4.05114 45.6269 3.99988L43.3703 0.823162C43.3318 0.769341 43.269 0.737305 43.2037 0.737305H37.1937C37.1475 0.737305 37.104 0.752682 37.0681 0.780874L32.9739 3.95631C32.9393 3.98322 32.9149 4.0191 32.9021 4.06139L29.9919 14.1067L29.4409 16.0084C29.423 16.0686 29.4345 16.1327 29.4704 16.1839L30.0919 17.0643L31.7219 19.3734C31.7603 19.4273 31.8231 19.4606 31.8897 19.4606H37.8998C37.9459 19.4606 37.9895 19.4452 38.0253 19.417L42.1247 16.2275C42.1593 16.2006 42.1836 16.1647 42.1952 16.1224L43.31 12.2755C43.3177 12.2537 43.3216 12.2306 43.3216 12.2076L43.319 12.2063Z" fill="#7A53FC"/>
<path d="M29.2589 16.33C29.1769 16.2147 29.1538 16.0711 29.1922 15.9353L29.9393 13.357L29.1128 0.928241C29.1051 0.820599 29.0167 0.737305 28.9078 0.737305H25.5414C25.4722 0.737305 25.4081 0.771904 25.3697 0.830851L15.4551 16.0442L14.7388 17.1437C14.6888 17.2193 14.6952 17.3193 14.7541 17.3885L16.716 19.6951C16.7558 19.7425 16.8134 19.7668 16.8724 19.7668C16.8993 19.7668 16.9262 19.7617 16.9518 19.7515L26.3961 15.7905L26.5653 19.3965C26.5678 19.4606 26.6012 19.5195 26.6537 19.5554C26.6883 19.5798 26.7293 19.5913 26.7703 19.5913C26.7921 19.5913 26.8126 19.5874 26.8344 19.581L30.129 18.5033C30.2174 18.4739 30.2764 18.388 30.2699 18.2945L30.2302 17.705L29.2602 16.33H29.2589ZM19.6698 15.2523L25.9156 5.52737L26.2411 12.4844L19.6711 15.2536L19.6698 15.2523Z" fill="#7A53FC"/>
<path d="M58.1057 0.819318C58.0672 0.76806 58.0057 0.737305 57.9416 0.737305H50.2478C50.203 0.737305 50.1581 0.752682 50.1222 0.780874L46.0267 3.95631C45.9921 3.98322 45.9678 4.0191 45.955 4.06139L42.4938 16.0084C42.4758 16.0686 42.4873 16.1327 42.5232 16.1839L44.7735 19.3734C44.8119 19.4273 44.8747 19.4606 44.9413 19.4606H52.6352C52.7261 19.4606 52.8069 19.4004 52.8325 19.3132L53.7539 16.1339C53.7615 16.1122 53.7654 16.0891 53.7654 16.066C53.7654 15.9533 53.6744 15.861 53.5604 15.861H46.1382L47.3287 11.7527H54.0448C54.1357 11.7527 54.2165 11.6924 54.2421 11.6053L55.0738 8.73612C55.0814 8.71434 55.0853 8.69127 55.0853 8.6682C55.0853 8.55544 54.9943 8.46317 54.8803 8.46317H48.2833L49.4828 4.32537H57.0228C57.1138 4.32537 57.1946 4.26514 57.2202 4.178L58.1403 1.00256C58.1582 0.941055 58.1454 0.87442 58.1069 0.82188L58.1057 0.819318Z" fill="#7A53FC"/>
</svg>
