<svg width="220" height="85" viewBox="0 0 220 85" fill="none" xmlns="http://www.w3.org/2000/svg">
<path fill-rule="evenodd" clip-rule="evenodd" d="M174.016 0.263493C173.897 0.0972438 173.708 0 173.504 0H158.793C158.655 0 158.517 0.0470511 158.407 0.131744L153.774 3.72336L176.459 3.70454L174.016 0.263493ZM165.44 41.2019L175.848 4.64269L154.107 4.66151L143.329 41.1987H165.44V41.2019ZM157.011 9.02477H170.418L162.309 37.0143H148.903L157.011 9.02477ZM176.911 4.3415L179.533 8.03348L179.53 8.03662C179.64 8.19032 179.675 8.38794 179.621 8.57301L171.149 37.8172C171.114 37.9427 171.036 38.0556 170.932 38.1371L166.252 41.779L176.911 4.3415ZM148.385 7.90165C148.282 7.98321 148.203 8.09613 148.166 8.2216L139.693 37.4658C139.64 37.6477 139.674 37.8453 139.784 38.0022L142.259 41.5091L153.297 4.0936L148.385 7.90165ZM145.804 46.0797C145.6 46.0797 145.412 45.9793 145.292 45.813L142.705 42.1461H165.785L160.901 45.9479C160.791 46.0326 160.653 46.0797 160.515 46.0797H145.804Z" fill="#DF5438"/>
<path fill-rule="evenodd" clip-rule="evenodd" d="M208.398 1.43994C208.476 1.17332 208.721 0.988246 209 0.988246H209.003H212.557L199.882 44.4828L189.816 1.2831L193.395 0.414215C193.442 0.401668 193.492 0.395395 193.542 0.395395C193.658 0.395395 193.774 0.429899 193.875 0.492635C194.016 0.580464 194.119 0.724757 194.154 0.891007L200.283 29.4514L208.398 1.43994ZM184.562 2.88237C184.624 2.66593 184.797 2.49968 185.017 2.44636V2.44949L189.173 1.43945L175.961 47.1047H172.582C172.385 47.1047 172.2 47.0106 172.08 46.8537C171.961 46.6969 171.924 46.4899 171.98 46.3017L184.562 2.88237ZM176.942 47.1018H180.355C180.634 47.1018 180.879 46.9168 180.957 46.6501L189.013 18.852L195.158 47.4845C195.192 47.6508 195.296 47.7951 195.44 47.886C195.54 47.9488 195.656 47.9801 195.772 47.9801C195.823 47.9801 195.876 47.9739 195.923 47.9613L199.515 47.0642L189.452 3.8676L176.942 47.1018ZM216.773 0.988281C217.121 0.988281 217.401 1.27059 217.401 1.61564C217.401 1.68778 217.388 1.75679 217.366 1.82266L204.728 45.4396C204.665 45.6529 204.493 45.8191 204.276 45.8724L200.152 46.9044L213.533 0.988281H216.773Z" fill="#DF5438"/>
<path fill-rule="evenodd" clip-rule="evenodd" d="M215.873 37.0385H219.06V37.0353C219.355 37.0353 219.634 37.1765 219.813 37.4118C219.989 37.6502 220.045 37.9544 219.963 38.2399L217.514 46.6998C217.398 47.1044 217.031 47.3804 216.61 47.3804H212.968L215.873 37.0385ZM210.349 37.7193C210.465 37.3147 210.832 37.0386 211.253 37.0386V37.0418H214.894L211.99 47.3837H208.803C208.508 47.3837 208.229 47.2426 208.05 47.0073C207.874 46.7689 207.818 46.4647 207.899 46.1792L210.349 37.7193Z" fill="#DF5438"/>
<path d="M0.496975 45.7967H7.10328C7.10328 45.7967 7.12834 45.7967 7.144 45.7967H14.9062C15.1286 45.7967 15.3259 45.6495 15.3886 45.4365L26.0013 8.7995H39.6493L36.1472 20.8876L28.2378 18.7481C28.194 18.7356 28.1501 18.7293 28.1063 18.7293C27.9716 18.7293 27.84 18.7826 27.746 18.8828L21.4686 25.3889C21.3214 25.5424 21.2869 25.7679 21.3809 25.959L27.8839 39.1183L24.93 41.2296C24.7702 41.3455 24.6919 41.5429 24.7295 41.7339L26.3208 49.7749C26.3521 49.9378 26.4649 50.0756 26.6184 50.1414C26.681 50.1664 26.7468 50.179 26.8126 50.179C26.9097 50.179 27.0036 50.1508 27.0882 50.0975L37.4441 43.2876L35.5865 41.1043C35.267 40.7284 35.2294 40.174 35.5019 39.7574L37.4347 36.7941L32.3382 27.6693L35.5959 28.6122C35.6429 28.6247 35.6899 28.631 35.7369 28.631C35.834 28.631 35.928 28.6028 36.0094 28.5495L44.1381 23.2557C44.2383 23.1899 44.3135 23.0897 44.3448 22.9738L48.5579 8.42987C48.6018 8.28265 48.5736 8.12603 48.4859 8.00073L42.9853 0.213494C42.8913 0.0819316 42.7379 0.000488281 42.575 0.000488281H27.8839C27.7711 0.000488281 27.6646 0.0380775 27.5769 0.106991L17.5562 7.90362C17.4716 7.9694 17.4121 8.05711 17.3839 8.16048L10.2514 32.7814L8.98274 37.1543H3.88001C3.68266 37.1543 3.50098 37.2702 3.42267 37.4519L0.0427718 45.095C-0.0261418 45.2485 -0.0104793 45.4302 0.0803613 45.5712C0.171202 45.7121 0.330956 45.7998 0.500108 45.7998L0.496975 45.7967Z" fill="#7A53FC"/>
<path d="M105.891 28.0358C105.891 27.7601 105.669 27.5346 105.39 27.5346H97.6276C97.4051 27.5346 97.2078 27.6818 97.1452 27.8948L94.517 36.9632H80.869L89.0415 8.76191H102.69L100.212 17.3166C100.168 17.4669 100.199 17.6298 100.293 17.7583C100.387 17.8836 100.538 17.9587 100.694 17.9587H108.456C108.679 17.9587 108.876 17.8115 108.939 17.5985L111.604 8.40481C111.648 8.25759 111.62 8.10097 111.532 7.97567L106.016 0.210361C105.922 0.0787992 105.769 0.000488281 105.609 0.000488281H90.9179C90.8051 0.000488281 90.6986 0.0380775 90.6109 0.106991L80.6028 7.86917C80.5182 7.93495 80.4587 8.02266 80.4273 8.12603L73.3136 32.6812L71.9666 37.3297C71.9228 37.4769 71.951 37.6336 72.0387 37.7589L73.5579 39.9109L77.5424 45.5555C77.6364 45.6871 77.7898 45.7685 77.9527 45.7685H92.6438C92.7566 45.7685 92.8631 45.7309 92.9508 45.662L102.971 37.8654C103.056 37.7996 103.116 37.7119 103.144 37.6085L105.869 28.2049C105.888 28.1517 105.897 28.0953 105.897 28.0389L105.891 28.0358Z" fill="#7A53FC"/>
<path d="M71.5218 38.116C71.3213 37.834 71.265 37.4832 71.3589 37.1512L73.1851 30.8487L71.1647 0.467221C71.1459 0.204097 70.9298 0.000488281 70.6635 0.000488281H62.4346C62.2655 0.000488281 62.1088 0.085064 62.0149 0.229156L37.7792 37.4174L36.0282 40.1051C35.906 40.2899 35.9217 40.5342 36.0658 40.7034L40.8615 46.3417C40.9586 46.4576 41.0996 46.5172 41.2437 46.5172C41.3095 46.5172 41.3753 46.5046 41.4379 46.4796L64.524 36.7972L64.9374 45.6119C64.9437 45.7685 65.0251 45.9126 65.1536 46.0003C65.2381 46.0598 65.3384 46.088 65.4386 46.088C65.4919 46.088 65.542 46.0786 65.5952 46.063L73.6487 43.4286C73.8649 43.3565 74.009 43.1467 73.9933 42.918L73.8962 41.4771L71.5249 38.116H71.5218ZM48.0818 35.4816L63.3493 11.7095L64.1449 28.7155L48.0849 35.4847L48.0818 35.4816Z" fill="#7A53FC"/>
<path d="M142.036 0.200964C141.942 0.0756667 141.792 0.000488281 141.635 0.000488281H122.828C122.718 0.000488281 122.609 0.0380775 122.521 0.106991L112.51 7.86917C112.425 7.93495 112.366 8.02266 112.334 8.12603L103.874 37.3297C103.83 37.4769 103.858 37.6336 103.946 37.7589L109.446 45.5555C109.54 45.6871 109.694 45.7685 109.857 45.7685H128.664C128.886 45.7685 129.083 45.6213 129.146 45.4083L131.398 37.6367C131.417 37.5835 131.427 37.5271 131.427 37.4707C131.427 37.195 131.204 36.9695 130.925 36.9695H112.782L115.692 26.9269H132.109C132.332 26.9269 132.529 26.7797 132.592 26.5667L134.625 19.5532C134.644 19.4999 134.653 19.4435 134.653 19.3871C134.653 19.1115 134.431 18.8859 134.152 18.8859H118.026L120.958 8.77131H139.389C139.612 8.77131 139.809 8.62408 139.872 8.41108L142.121 0.648902C142.165 0.498546 142.133 0.335659 142.039 0.207229L142.036 0.200964Z" fill="#7A53FC"/>
<path d="M32.1062 65.4448V69.0229H34.075V70.4761H32.1062V73.9604H30.3719V65.4448H32.1062ZM20.9812 68.1948V66.8042H24.3094V65.3511H26.0437V66.8042H29.3562V68.1948H20.9812ZM21.7 71.2417C21.7 69.7339 23.1062 68.7104 25.1687 68.7104C27.2156 68.7104 28.6141 69.7339 28.6219 71.2417C28.6141 72.7651 27.2078 73.7729 25.1687 73.7729C23.1062 73.7729 21.7 72.7651 21.7 71.2417ZM22.9812 79.3979V74.6323H32.1062V79.3979H22.9812ZM23.3875 71.2417C23.3797 72.0308 24.0984 72.4761 25.1687 72.4761C26.2391 72.4761 26.9656 72.0308 26.9656 71.2417C26.9656 70.4761 26.2391 70.0229 25.1687 70.0229C24.0984 70.0229 23.3797 70.4761 23.3875 71.2417ZM24.7 77.9917H30.3875V76.0073H24.7V77.9917ZM38.1181 67.1011C38.1025 70.437 37.7353 73.6479 35.8525 76.4292L34.4931 75.6948C36.0478 73.4995 36.5087 71.2026 36.6103 68.5073H34.8994V67.1011H38.1181ZM37.6806 76.4604C39.3759 74.0308 39.7119 71.3042 39.7744 68.5073H38.54V67.1011H41.2744C41.2666 68.312 41.2431 69.5698 41.1103 70.8198H42.54V65.7886H44.1806V78.8979H42.54V72.2261H40.9228C40.6181 73.9683 40.0478 75.6714 39.0087 77.2104L37.6806 76.4604ZM45.2431 79.5698V65.4448H46.915V79.5698H45.2431ZM58.8137 66.2104V67.6011H54.2044V70.7417C56.7747 70.7261 58.3137 70.6245 60.0637 70.2729L60.2512 71.6167C58.3528 72.0464 56.6341 72.1089 53.6262 72.1011H52.4856V66.2104H58.8137ZM53.845 74.5073V73.1167H63.0794V76.8667H55.5794V77.9917H63.5169V79.3979H53.8606V75.5542H61.345V74.5073H53.845ZM61.345 72.5073V65.4448H63.0794V68.2261H65.0481V69.6479H63.0794V72.5073H61.345ZM77.3725 65.4448V79.5854H75.6537V65.4448H77.3725ZM66.3725 68.0854V66.6792H73.0287V71.9761H68.1694V74.8198C70.3959 74.8042 72.31 74.687 74.5131 74.3198L74.6694 75.7417C72.2709 76.1558 70.1616 76.2495 67.6225 76.2417H66.3881V70.6011H71.2631V68.0854H66.3725ZM90.8062 66.7417V68.1011C90.7906 69.8589 90.7906 71.8198 90.2437 74.7729L88.4937 74.5854C89.0484 71.8354 89.0484 69.8276 89.0562 68.1323H80.6187V66.7417H90.8062ZM79.275 77.7417V76.3198H84.025V71.4136H85.7437V76.3198H92.15V77.7417H79.275ZM95.6931 77.0698L94.3806 81.4448H92.8962L93.7087 77.0698H95.6931ZM113.373 71.2729V72.6636H100.498V71.2729H113.373ZM101.123 69.4448C103.756 69.2729 105.467 68.3433 105.834 67.3042H101.67V65.9292H112.217V67.3042H108.014C108.365 68.3511 110.1 69.2729 112.764 69.4448L112.217 70.7886C109.686 70.5776 107.772 69.7261 106.92 68.4683C106.068 69.7261 104.178 70.5776 101.67 70.7886L101.123 69.4448ZM102.014 74.8979V73.6167H111.764V77.0854H103.732V78.1167H112.154V79.4448H102.029V75.8511H110.061V74.8979H102.014ZM125.994 65.4448V73.0698H124.26V70.1948H121.526V68.8042H124.26V65.4448H125.994ZM114.322 72.0386C117.643 71.2339 119.354 69.6714 119.627 67.6792H115.057V66.2573H121.51C121.51 69.9526 119.205 72.3433 114.979 73.4136L114.322 72.0386ZM116.635 79.3979V73.7104H118.385V75.2104H124.26V73.7104H125.994V79.3979H116.635ZM118.385 78.0073H124.26V76.5698H118.385V78.0073ZM140.022 65.4448V79.5698H138.366V65.4448H140.022ZM127.725 75.3511C130.647 73.6245 131.991 71.4136 132.256 68.5698H128.444V67.1636H133.975C133.975 68.5308 133.803 69.812 133.42 71.0073H135.381V65.7886H137.022V78.8979H135.381V72.3979H132.85C132.03 74.0151 130.702 75.4292 128.709 76.5854L127.725 75.3511ZM156.967 65.4604V73.7104H155.233V72.1479H151.874V70.7417H155.233V69.2261H152.007C151.116 71.4683 149.053 73.0386 145.983 73.8979L145.28 72.5229C148.585 71.6323 150.35 69.9526 150.616 67.8511H146.03V66.4448H152.514C152.514 66.937 152.475 67.4058 152.397 67.8511H155.233V65.4604H156.967ZM147.499 76.6792C147.499 74.9448 149.397 73.8745 152.296 73.8667C155.155 73.8745 157.061 74.9448 157.061 76.6792C157.061 78.4136 155.155 79.4995 152.296 79.4917C149.397 79.4995 147.499 78.4136 147.499 76.6792ZM149.233 76.6792C149.233 77.6089 150.397 78.1167 152.296 78.1167C154.163 78.1167 155.319 77.6089 155.327 76.6792C155.319 75.7339 154.163 75.2261 152.296 75.2261C150.397 75.2261 149.233 75.7339 149.233 76.6792ZM163.151 68.2417C163.143 69.8667 163.964 71.3042 165.761 71.9917L164.854 73.3354C163.643 72.8589 162.823 72.0073 162.339 70.9292C161.839 72.1558 160.948 73.1558 159.636 73.6948L158.698 72.3511C160.604 71.5698 161.479 69.9214 161.479 68.2417V67.9292H159.104V66.5386H165.432V67.9292H163.151V68.2417ZM161.276 76.9136C161.268 75.2729 163.143 74.2964 166.12 74.2886C169.073 74.2964 170.956 75.2729 170.964 76.9136C170.956 78.562 169.073 79.5542 166.12 79.5542C163.143 79.5542 161.268 78.562 161.276 76.9136ZM163.011 76.9136C163.003 77.7729 164.159 78.2104 166.12 78.2104C168.05 78.2104 169.206 77.7729 169.214 76.9136C169.206 76.0933 168.05 75.6167 166.12 75.6167C164.159 75.6167 163.003 76.0933 163.011 76.9136ZM166.229 73.6011V65.7261H167.87V68.9917H169.229V65.4604H170.886V74.0386H169.229V70.4136H167.87V73.6011H166.229ZM183.538 65.4448V71.0698H185.71V72.5073H183.538V79.5698H181.819V65.4448H183.538ZM172.397 69.0073V67.6167H175.741V65.6479H177.476V67.6167H180.726V69.0073H172.397ZM173.054 73.2573C173.038 71.3042 174.554 69.9214 176.616 69.9292C178.647 69.9214 180.155 71.3042 180.163 73.2573C180.155 75.2026 178.647 76.5698 176.616 76.5698C174.554 76.5698 173.038 75.2026 173.054 73.2573ZM174.71 73.2573C174.702 74.4058 175.507 75.1401 176.616 75.1323C177.702 75.1401 178.491 74.4058 178.507 73.2573C178.491 72.1089 177.702 71.3511 176.616 71.3511C175.507 71.3511 174.702 72.1089 174.71 73.2573ZM197.206 65.4448V70.8667H199.378V72.3198H197.206V79.5854H195.488V65.4448H197.206ZM186.706 68.0854V66.6792H193.206V72.0073H188.456V74.8198C190.698 74.8042 192.441 74.7104 194.409 74.3667L194.566 75.7729C192.386 76.1636 190.464 76.2573 187.894 76.2573H186.738V70.6167H191.472V68.0854H186.706Z" fill="#BFC5D0"/>
</svg>
