<svg width="24" height="24" viewBox="0 0 24 24" fill="none" xmlns="http://www.w3.org/2000/svg">
<path fill-rule="evenodd" clip-rule="evenodd" d="M18.9577 10.2414C18.9577 7.09743 16.8745 4.43998 14.0131 3.57411C13.7893 2.67013 12.9727 2 11.9995 2C11.0276 2 10.2119 2.66834 9.98675 3.57048C7.12598 4.43142 5.04212 7.08603 5.04212 10.2274V14.6446L3.74872 16.7751C3.33546 17.4559 3.82553 18.3267 4.62188 18.3267H19.3781C20.1745 18.3267 20.6646 17.4558 20.2513 16.7751L18.9577 14.6446V10.2414ZM14.9722 20.4564C14.6378 21.3432 13.4339 21.9998 12 21.9998C10.5661 21.9998 9.36222 21.3432 9.0279 20.4564C8.92839 20.1925 9.16427 19.9568 9.44635 19.9568H14.5537C14.8358 19.9568 15.0717 20.1925 14.9722 20.4564Z" fill="#F0F2F5"/>
</svg>
