<svg width="24" height="24" viewBox="0 0 24 24" fill="none" xmlns="http://www.w3.org/2000/svg">
<path fill-rule="evenodd" clip-rule="evenodd" d="M20.0508 5.94487C19.5529 5.0825 18.4525 4.78567 17.5931 5.28188L17.155 5.53481C16.7238 5.78375 16.1919 5.74775 15.7594 5.49936C15.3258 5.25028 15.022 4.8058 15.022 4.30735L15.022 3.79696C15.022 2.80453 14.2148 2 13.219 2L10.7811 2C9.78531 2.00001 8.97806 2.80453 8.97806 3.79696L8.97806 4.30729C8.97806 4.80607 8.67506 5.24997 8.24177 5.49873C7.80855 5.74745 7.27493 5.78298 6.84159 5.53279L6.40699 5.28188C5.54752 4.78566 4.44716 5.08249 3.94927 5.94487L2.73032 8.05615C2.23243 8.91853 2.52555 10.0199 3.38502 10.5161L3.78651 10.7479C4.22745 11.0025 4.46625 11.4929 4.46626 12.0003C4.46626 12.5081 4.22813 12.9981 3.78762 13.2525L3.38499 13.4849C2.52552 13.9811 2.2324 15.0825 2.7303 15.9449L3.94924 18.0561C4.44714 18.9185 5.5475 19.2154 6.40697 18.7191L6.84556 18.4659C7.27663 18.217 7.80841 18.253 8.24078 18.5013C8.67439 18.7504 8.97807 19.1948 8.97806 19.6931L8.97806 20.203C8.97807 21.1955 9.78531 22 10.7811 22L13.219 22C14.2148 22 15.022 21.1955 15.022 20.203L15.022 19.6932C15.022 19.1945 15.325 18.7507 15.7582 18.502C16.1913 18.2533 16.7248 18.2178 17.158 18.468L17.5931 18.7191C18.4526 19.2154 19.5529 18.9185 20.0508 18.0562L21.2698 15.9449C21.7677 15.0825 21.4746 13.9811 20.6151 13.4849L20.2139 13.2533C19.7728 12.9986 19.5339 12.508 19.5339 12.0003C19.5339 11.4927 19.7719 11.0029 20.2122 10.7487L20.6151 10.5161C21.4745 10.0199 21.7676 8.91852 21.2697 8.05615L20.0508 5.94487ZM11.9999 16.0001C14.209 16.0001 15.9999 14.2092 15.9999 12.0001C15.9999 9.79095 14.209 8.00009 11.9999 8.00009C9.79075 8.00009 7.99989 9.79095 7.99989 12.0001C7.99989 14.2092 9.79075 16.0001 11.9999 16.0001Z" fill="#BFC5D0"/>
</svg>
