<svg width="24" height="24" viewBox="0 0 24 24" fill="none" xmlns="http://www.w3.org/2000/svg">
<path fill-rule="evenodd" clip-rule="evenodd" d="M17.6569 4.34266C16.1566 2.84237 14.1217 1.99951 12 1.99951C9.87828 1.99951 7.84345 2.84237 6.34316 4.34266C4.84286 5.84295 4.00001 7.87778 4.00001 9.99951C4.00001 13.3045 6.27037 17.461 10.752 21.383L11.0622 21.6521C11.3225 21.8766 11.6547 22.0002 11.9985 22.0005C12.3422 22.0008 12.6747 21.8778 12.9354 21.6538C17.6246 17.6267 20 13.38 20 9.99951C20 7.87778 19.1572 5.84295 17.6569 4.34266ZM12 14C14.2091 14 16 12.2091 16 10C16 7.79086 14.2091 6 12 6C9.79087 6 8.00001 7.79086 8.00001 10C8.00001 12.2091 9.79087 14 12 14Z" fill="#F0F2F5"/>
</svg>
