<svg width="155" height="140" viewBox="0 0 155 140" fill="none" xmlns="http://www.w3.org/2000/svg">
<g clip-path="url(#clip0_601_10747)">
<rect x="28.7831" y="48.3901" width="107.743" height="68.8261" transform="rotate(12 28.7831 48.3901)" fill="#DF5438"/>
<path d="M134.172 70.791L92.943 17.5708C91.7952 16.0892 89.7451 15.6534 88.0939 16.5401L28.783 48.39L134.172 70.791Z" fill="#1A1A1B"/>
<path fill-rule="evenodd" clip-rule="evenodd" d="M87.64 15.695C89.704 14.5867 92.2667 15.1314 93.7014 16.9834L134.93 70.2037C135.177 70.5219 135.198 70.9603 134.984 71.3013C134.77 71.6422 134.366 71.8133 133.972 71.7296L28.5836 49.3286C28.1898 49.2449 27.8902 48.9242 27.8333 48.5257C27.7765 48.1271 27.9745 47.7354 28.3292 47.545L87.64 15.695ZM92.1846 18.1585C91.3238 17.0473 89.7862 16.7204 88.5478 17.3854L31.5443 47.9963L131.809 69.3083L92.1846 18.1585Z" fill="url(#paint0_linear_601_10747)"/>
<g filter="url(#filter0_d_601_10747)">
<path d="M48.3012 16.6857C48.5216 15.6492 49.5404 14.9875 50.5769 15.2078L126.645 31.3767C127.682 31.597 128.344 32.6159 128.123 33.6524L110.594 116.123C110.373 117.159 109.355 117.821 108.318 117.601L32.2495 101.432C31.213 101.211 30.5513 100.193 30.7716 99.156L48.3012 16.6857Z" fill="#D9D9D9"/>
<path d="M48.3012 16.6857C48.5216 15.6492 49.5404 14.9875 50.5769 15.2078L126.645 31.3767C127.682 31.597 128.344 32.6159 128.123 33.6524L110.594 116.123C110.373 117.159 109.355 117.821 108.318 117.601L32.2495 101.432C31.213 101.211 30.5513 100.193 30.7716 99.156L48.3012 16.6857Z" fill="url(#paint1_linear_601_10747)"/>
</g>
<g filter="url(#filter1_d_601_10747)">
<path fill-rule="evenodd" clip-rule="evenodd" d="M47.3629 16.4858C47.6933 14.9311 49.2217 13.9386 50.7764 14.269L126.845 30.4379C128.4 30.7684 129.392 32.2967 129.062 33.8515L111.532 116.322C111.202 117.877 109.673 118.869 108.119 118.539L32.05 102.37C30.4953 102.039 29.5028 100.511 29.8333 98.9562L47.3629 16.4858ZM50.3775 16.1458C49.8592 16.0357 49.3498 16.3665 49.2397 16.8848L31.71 99.3551C31.5999 99.8734 31.9307 100.383 32.449 100.493L108.518 116.662C109.036 116.772 109.545 116.441 109.655 115.923L127.185 33.4526C127.295 32.9343 126.964 32.4249 126.446 32.3147L50.3775 16.1458Z" fill="url(#paint2_linear_601_10747)"/>
</g>
<path d="M80.7073 33.9419L110.536 52.8577C111.431 53.4251 111.696 54.6107 111.129 55.5056L99.5656 73.74C98.9981 74.6349 97.8126 74.9003 96.9177 74.3328L67.089 55.417L80.7073 33.9419Z" fill="white"/>
<path fill-rule="evenodd" clip-rule="evenodd" d="M79.087 32.9143C79.6545 32.0194 80.84 31.754 81.7349 32.3215L111.564 51.2373C113.353 52.3722 113.884 54.7433 112.749 56.5331L101.186 74.7675C100.051 76.5573 97.68 77.0881 95.8901 75.9531L66.0614 57.0374C65.1665 56.4699 64.9011 55.2844 65.4686 54.3895L79.087 32.9143ZM80.7073 33.9419L67.089 55.417L96.9177 74.3328C97.8126 74.9003 98.9981 74.6348 99.5656 73.7399L111.129 55.5055C111.696 54.6106 111.431 53.4251 110.536 52.8576L80.7073 33.9419Z" fill="#DF5438"/>
<path d="M80.7073 33.9414L87.8657 38.4809L83.3262 45.6392L76.1678 41.0998L80.7073 33.9414Z" fill="#1A1A1B"/>
<path d="M95.024 43.0205L102.182 47.56L97.6429 54.7183L90.4845 50.1789L95.024 43.0205Z" fill="#1A1A1B"/>
<path d="M109.34 52.0991L110.536 52.8573C111.431 53.4248 111.696 54.6103 111.129 55.5052L107.617 61.0432L104.801 59.2575L109.34 52.0991Z" fill="#1A1A1B"/>
<path d="M71.6283 48.2583L78.7867 52.7978L74.2472 59.9561L67.0888 55.4167L71.6283 48.2583Z" fill="#1A1A1B"/>
<path d="M85.9451 57.3369L93.1035 61.8764L88.5641 69.0348L81.4057 64.4953L85.9451 57.3369Z" fill="#1A1A1B"/>
<path d="M100.262 66.416L103.077 68.2017L99.5656 73.7397C98.9981 74.6346 97.8126 74.9 96.9177 74.3325L95.7221 73.5744L100.262 66.416Z" fill="#1A1A1B"/>
<path d="M83.3263 45.6392L90.4847 50.1786L85.9452 57.337L78.7868 52.7975L83.3263 45.6392Z" fill="#1A1A1B"/>
<path d="M97.6429 54.7183L104.801 59.2577L100.262 66.4161L93.1034 61.8766L97.6429 54.7183Z" fill="#1A1A1B"/>
<path d="M78.6377 31.4898C79.0904 30.776 80.036 30.5642 80.7499 31.0169C81.4637 31.4696 81.6754 32.4153 81.2228 33.1291L57.8096 70.05C57.3569 70.7639 56.4112 70.9756 55.6974 70.5229C54.9835 70.0702 54.7718 69.1245 55.2245 68.4107L78.6377 31.4898Z" fill="#1A1A1B"/>
<path fill-rule="evenodd" clip-rule="evenodd" d="M82.8431 34.1566L59.4299 71.0775C58.4097 72.6863 56.2785 73.1634 54.6698 72.1432C53.061 71.123 52.5839 68.9919 53.6041 67.3831L77.0173 30.4622C78.0375 28.8535 80.1687 28.3763 81.7774 29.3965C83.3862 30.4167 83.8633 32.5479 82.8431 34.1566ZM80.7499 31.0169C80.036 30.5642 79.0903 30.7759 78.6377 31.4898L55.2245 68.4107C54.7718 69.1245 54.9835 70.0702 55.6973 70.5229C56.4112 70.9755 57.3569 70.7638 57.8095 70.05L81.2227 33.1291C81.6754 32.4152 81.4637 31.4696 80.7499 31.0169Z" fill="#DF5438"/>
<path d="M52.6353 66.7394C52.9191 66.2919 53.5118 66.1592 53.9593 66.443L60.1288 70.3554C60.5763 70.6391 60.709 71.2319 60.4252 71.6793L59.573 73.0232C59.2892 73.4707 58.6965 73.6034 58.249 73.3196L52.0795 69.4073C51.632 69.1235 51.4993 68.5308 51.7831 68.0833L52.6353 66.7394Z" fill="#1A1A1B"/>
<path fill-rule="evenodd" clip-rule="evenodd" d="M54.9868 64.8226L61.1564 68.735C62.4987 69.5862 62.8968 71.3645 62.0456 72.7068L61.1933 74.0508C60.3421 75.3931 58.5638 75.7912 57.2215 74.94L51.0519 71.0276C49.7096 70.1764 49.3115 68.3981 50.1627 67.0557L51.015 65.7118C51.8662 64.3694 53.6445 63.9713 54.9868 64.8226ZM53.9593 66.4429C53.5118 66.1592 52.9191 66.2919 52.6353 66.7394L51.7831 68.0833C51.4993 68.5307 51.632 69.1235 52.0795 69.4072L58.249 73.3196C58.6965 73.6034 59.2892 73.4707 59.573 73.0232L60.4252 71.6793C60.709 71.2318 60.5763 70.6391 60.1288 70.3553L53.9593 66.4429Z" fill="#DF5438"/>
<path d="M49.2213 69.6305C49.505 69.183 50.0978 69.0503 50.5452 69.3341L58.9696 74.6764C59.4171 74.9601 59.5498 75.5529 59.266 76.0003L57.4665 78.8381C57.1827 79.2855 56.59 79.4182 56.1425 79.1345L47.7181 73.7922C47.2707 73.5085 47.138 72.9157 47.4217 72.4682L49.2213 69.6305Z" fill="#1A1A1B"/>
<path fill-rule="evenodd" clip-rule="evenodd" d="M51.5728 67.7137L59.9972 73.056C61.3396 73.9072 61.7377 75.6855 60.8864 77.0279L59.0869 79.8656C58.2356 81.208 56.4574 81.6061 55.115 80.7548L46.6906 75.4125C45.3483 74.5613 44.9502 72.783 45.8014 71.4407L47.6009 68.6029C48.4522 67.2606 50.2305 66.8624 51.5728 67.7137ZM50.5453 69.3341C50.0978 69.0503 49.5051 69.183 49.2213 69.6305L47.4218 72.4682C47.138 72.9157 47.2707 73.5084 47.7182 73.7922L56.1426 79.1345C56.59 79.4182 57.1828 79.2855 57.4665 78.838L59.2661 76.0003C59.5498 75.5528 59.4171 74.9601 58.9697 74.6763L50.5453 69.3341Z" fill="#DF5438"/>
<path d="M134.172 70.7912L14.4733 115.712L119.862 138.113L134.172 70.7912Z" fill="#1A1A1B"/>
<path fill-rule="evenodd" clip-rule="evenodd" d="M134.797 70.0642C135.063 70.2928 135.183 70.648 135.11 70.9908L120.8 138.313C120.69 138.831 120.181 139.162 119.662 139.052L14.2739 116.651C13.857 116.562 13.5485 116.209 13.5167 115.784C13.4848 115.359 13.7372 114.964 14.1363 114.814L133.834 69.8931C134.163 69.77 134.532 69.8356 134.797 70.0642ZM17.8849 115.457L119.123 136.976L132.869 72.3048L17.8849 115.457Z" fill="url(#paint3_linear_601_10747)"/>
<path d="M28.7831 48.3901L119.862 138.113L14.4734 115.712L28.7831 48.3901Z" fill="#1A1A1B"/>
<path fill-rule="evenodd" clip-rule="evenodd" d="M28.5073 47.4715C28.8429 47.3707 29.2068 47.4609 29.4564 47.7069L120.535 137.43C120.839 137.729 120.909 138.193 120.707 138.568C120.505 138.943 120.079 139.14 119.662 139.052L14.274 116.651C13.7557 116.541 13.4249 116.031 13.5351 115.513L27.8448 48.1908C27.9177 47.848 28.1716 47.5723 28.5073 47.4715ZM29.3575 50.3027L15.6113 114.973L116.849 136.492L29.3575 50.3027Z" fill="url(#paint4_linear_601_10747)"/>
<path d="M119.862 138.113L78.6332 84.8931C77.4854 83.4114 75.4353 82.9756 73.7841 83.8623L14.4733 115.712L119.862 138.113Z" fill="#1A1A1B"/>
<path fill-rule="evenodd" clip-rule="evenodd" d="M73.3303 83.0173C75.3943 81.9089 77.9569 82.4537 79.3917 84.3057L120.62 137.526C120.867 137.844 120.888 138.283 120.674 138.624C120.46 138.965 120.056 139.136 119.662 139.052L14.2739 116.651C13.8801 116.567 13.5804 116.246 13.5236 115.848C13.4667 115.449 13.6648 115.058 14.0194 114.867L73.3303 83.0173ZM77.8748 85.4807C77.014 84.3695 75.4764 84.0427 74.238 84.7077L17.2346 115.319L117.5 136.631L77.8748 85.4807Z" fill="url(#paint5_linear_601_10747)"/>
<g opacity="0.3" filter="url(#filter2_df_601_10747)">
<circle cx="146.234" cy="33.5867" r="4.76643" fill="white"/>
</g>
<g opacity="0.6" filter="url(#filter3_df_601_10747)">
<circle cx="16.5587" cy="38.45" r="4.76643" fill="white"/>
</g>
<g filter="url(#filter4_df_601_10747)">
<rect x="136.297" y="57.8276" width="4.48824" height="4.48824" rx="0.959356" transform="rotate(-61.6769 136.297 57.8276)" fill="white"/>
</g>
<g opacity="0.8" filter="url(#filter5_df_601_10747)">
<rect x="3" y="25.5571" width="4.48824" height="4.48824" rx="0.959356" transform="rotate(-23.7137 3 25.5571)" fill="white"/>
</g>
<g filter="url(#filter6_df_601_10747)">
<circle cx="21.2028" cy="7.55641" r="2.75563" fill="white"/>
</g>
</g>
<defs>
<filter id="filter0_d_601_10747" x="21.1358" y="5.57197" width="116.623" height="121.665" filterUnits="userSpaceOnUse" color-interpolation-filters="sRGB">
<feFlood flood-opacity="0" result="BackgroundImageFix"/>
<feColorMatrix in="SourceAlpha" type="matrix" values="0 0 0 0 0 0 0 0 0 0 0 0 0 0 0 0 0 0 127 0" result="hardAlpha"/>
<feOffset/>
<feGaussianBlur stdDeviation="4.79678"/>
<feComposite in2="hardAlpha" operator="out"/>
<feColorMatrix type="matrix" values="0 0 0 0 1 0 0 0 0 0.368627 0 0 0 0 0.282353 0 0 0 1 0"/>
<feBlend mode="normal" in2="BackgroundImageFix" result="effect1_dropShadow_601_10747"/>
<feBlend mode="normal" in="SourceGraphic" in2="effect1_dropShadow_601_10747" result="shape"/>
</filter>
<filter id="filter1_d_601_10747" x="20.1762" y="4.61201" width="118.543" height="123.584" filterUnits="userSpaceOnUse" color-interpolation-filters="sRGB">
<feFlood flood-opacity="0" result="BackgroundImageFix"/>
<feColorMatrix in="SourceAlpha" type="matrix" values="0 0 0 0 0 0 0 0 0 0 0 0 0 0 0 0 0 0 127 0" result="hardAlpha"/>
<feOffset/>
<feGaussianBlur stdDeviation="4.79678"/>
<feComposite in2="hardAlpha" operator="out"/>
<feColorMatrix type="matrix" values="0 0 0 0 1 0 0 0 0 0.368627 0 0 0 0 0.282353 0 0 0 1 0"/>
<feBlend mode="normal" in2="BackgroundImageFix" result="effect1_dropShadow_601_10747"/>
<feBlend mode="normal" in="SourceGraphic" in2="effect1_dropShadow_601_10747" result="shape"/>
</filter>
<filter id="filter2_df_601_10747" x="137.467" y="24.8203" width="17.5328" height="17.5327" filterUnits="userSpaceOnUse" color-interpolation-filters="sRGB">
<feFlood flood-opacity="0" result="BackgroundImageFix"/>
<feColorMatrix in="SourceAlpha" type="matrix" values="0 0 0 0 0 0 0 0 0 0 0 0 0 0 0 0 0 0 127 0" result="hardAlpha"/>
<feOffset/>
<feGaussianBlur stdDeviation="2"/>
<feComposite in2="hardAlpha" operator="out"/>
<feColorMatrix type="matrix" values="0 0 0 0 1 0 0 0 0 0.368627 0 0 0 0 0.282353 0 0 0 1 0"/>
<feBlend mode="normal" in2="BackgroundImageFix" result="effect1_dropShadow_601_10747"/>
<feBlend mode="normal" in="SourceGraphic" in2="effect1_dropShadow_601_10747" result="shape"/>
<feGaussianBlur stdDeviation="0.479678" result="effect2_foregroundBlur_601_10747"/>
</filter>
<filter id="filter3_df_601_10747" x="2.19874" y="24.09" width="28.72" height="28.7198" filterUnits="userSpaceOnUse" color-interpolation-filters="sRGB">
<feFlood flood-opacity="0" result="BackgroundImageFix"/>
<feColorMatrix in="SourceAlpha" type="matrix" values="0 0 0 0 0 0 0 0 0 0 0 0 0 0 0 0 0 0 127 0" result="hardAlpha"/>
<feOffset/>
<feGaussianBlur stdDeviation="4.79678"/>
<feComposite in2="hardAlpha" operator="out"/>
<feColorMatrix type="matrix" values="0 0 0 0 1 0 0 0 0 0.368627 0 0 0 0 0.282353 0 0 0 1 0"/>
<feBlend mode="normal" in2="BackgroundImageFix" result="effect1_dropShadow_601_10747"/>
<feBlend mode="normal" in="SourceGraphic" in2="effect1_dropShadow_601_10747" result="shape"/>
<feGaussianBlur stdDeviation="0.479678" result="effect2_foregroundBlur_601_10747"/>
</filter>
<filter id="filter4_df_601_10747" x="132.8" y="50.3794" width="13.0749" height="13.0747" filterUnits="userSpaceOnUse" color-interpolation-filters="sRGB">
<feFlood flood-opacity="0" result="BackgroundImageFix"/>
<feColorMatrix in="SourceAlpha" type="matrix" values="0 0 0 0 0 0 0 0 0 0 0 0 0 0 0 0 0 0 127 0" result="hardAlpha"/>
<feOffset/>
<feGaussianBlur stdDeviation="1.91871"/>
<feComposite in2="hardAlpha" operator="out"/>
<feColorMatrix type="matrix" values="0 0 0 0 1 0 0 0 0 0.368627 0 0 0 0 0.282353 0 0 0 1 0"/>
<feBlend mode="normal" in2="BackgroundImageFix" result="effect1_dropShadow_601_10747"/>
<feBlend mode="normal" in="SourceGraphic" in2="effect1_dropShadow_601_10747" result="shape"/>
<feGaussianBlur stdDeviation="0.479678" result="effect2_foregroundBlur_601_10747"/>
</filter>
<filter id="filter5_df_601_10747" x="-0.532858" y="20.2192" width="12.98" height="12.98" filterUnits="userSpaceOnUse" color-interpolation-filters="sRGB">
<feFlood flood-opacity="0" result="BackgroundImageFix"/>
<feColorMatrix in="SourceAlpha" type="matrix" values="0 0 0 0 0 0 0 0 0 0 0 0 0 0 0 0 0 0 127 0" result="hardAlpha"/>
<feOffset/>
<feGaussianBlur stdDeviation="1.91871"/>
<feComposite in2="hardAlpha" operator="out"/>
<feColorMatrix type="matrix" values="0 0 0 0 1 0 0 0 0 0.368627 0 0 0 0 0.282353 0 0 0 1 0"/>
<feBlend mode="normal" in2="BackgroundImageFix" result="effect1_dropShadow_601_10747"/>
<feBlend mode="normal" in="SourceGraphic" in2="effect1_dropShadow_601_10747" result="shape"/>
<feGaussianBlur stdDeviation="0.479678" result="effect2_foregroundBlur_601_10747"/>
</filter>
<filter id="filter6_df_601_10747" x="14.4471" y="0.800781" width="13.5112" height="13.5112" filterUnits="userSpaceOnUse" color-interpolation-filters="sRGB">
<feFlood flood-opacity="0" result="BackgroundImageFix"/>
<feColorMatrix in="SourceAlpha" type="matrix" values="0 0 0 0 0 0 0 0 0 0 0 0 0 0 0 0 0 0 127 0" result="hardAlpha"/>
<feOffset/>
<feGaussianBlur stdDeviation="2"/>
<feComposite in2="hardAlpha" operator="out"/>
<feColorMatrix type="matrix" values="0 0 0 0 1 0 0 0 0 0.368627 0 0 0 0 0.282353 0 0 0 1 0"/>
<feBlend mode="normal" in2="BackgroundImageFix" result="effect1_dropShadow_601_10747"/>
<feBlend mode="normal" in="SourceGraphic" in2="effect1_dropShadow_601_10747" result="shape"/>
<feGaussianBlur stdDeviation="0.479678" result="effect2_foregroundBlur_601_10747"/>
</filter>
<linearGradient id="paint0_linear_601_10747" x1="27.6452" y1="28.2564" x2="139.332" y2="48.8303" gradientUnits="userSpaceOnUse">
<stop stop-color="#DF5438"/>
<stop offset="1" stop-color="#7D4740"/>
</linearGradient>
<linearGradient id="paint1_linear_601_10747" x1="80.4755" y1="61.5678" x2="61.3606" y2="10.1065" gradientUnits="userSpaceOnUse">
<stop stop-color="#1A1A1B"/>
<stop offset="1" stop-color="#DF5438"/>
</linearGradient>
<linearGradient id="paint2_linear_601_10747" x1="106.834" y1="133.813" x2="68.4805" y2="8.74298" gradientUnits="userSpaceOnUse">
<stop stop-color="#DC3C26"/>
<stop offset="1" stop-color="white"/>
</linearGradient>
<linearGradient id="paint3_linear_601_10747" x1="15.5748" y1="85.0429" x2="127.086" y2="106.672" gradientUnits="userSpaceOnUse">
<stop stop-color="#DF5438"/>
<stop offset="1" stop-color="#7D4740"/>
</linearGradient>
<linearGradient id="paint4_linear_601_10747" x1="15.575" y1="85.0429" x2="127.087" y2="106.672" gradientUnits="userSpaceOnUse">
<stop stop-color="#DF5438"/>
<stop offset="1" stop-color="#7D4740"/>
</linearGradient>
<linearGradient id="paint5_linear_601_10747" x1="13.3354" y1="95.5787" x2="125.022" y2="116.153" gradientUnits="userSpaceOnUse">
<stop stop-color="#DF5438"/>
<stop offset="1" stop-color="#7D4740"/>
</linearGradient>
<clipPath id="clip0_601_10747">
<rect width="154.27" height="140" fill="white"/>
</clipPath>
</defs>
</svg>
