<svg width="320" height="320" viewBox="0 0 320 320" fill="none" xmlns="http://www.w3.org/2000/svg">
<g clip-path="url(#clip0_601_10798)">
<path d="M320 160C320 248.366 248.366 320 160 320C71.6346 320 0.00012207 248.366 0.00012207 160C0.00012207 71.6344 71.6346 0 160 0C248.366 0 320 71.6344 320 160Z" fill="url(#paint0_radial_601_10798)"/>
<g filter="url(#filter0_d_601_10798)">
<path fill-rule="evenodd" clip-rule="evenodd" d="M241.356 160C241.356 204.931 204.932 241.356 160 241.356C115.069 241.356 78.6442 204.931 78.6442 160C78.6442 115.068 115.069 78.6436 160 78.6436C204.932 78.6436 241.356 115.068 241.356 160ZM160 239.356C203.827 239.356 239.356 203.827 239.356 160C239.356 116.172 203.827 80.6436 160 80.6436C116.173 80.6436 80.6442 116.172 80.6442 160C80.6442 203.827 116.173 239.356 160 239.356Z" fill="url(#paint1_linear_601_10798)" fill-opacity="0.3" shape-rendering="crispEdges"/>
</g>
<g filter="url(#filter1_dd_601_10798)">
<path d="M220.275 160C220.275 193.289 193.289 220.275 160 220.275C126.711 220.275 99.725 193.289 99.725 160C99.725 126.711 126.711 99.7246 160 99.7246C193.289 99.7246 220.275 126.711 220.275 160Z" fill="url(#paint2_linear_601_10798)"/>
</g>
<path fill-rule="evenodd" clip-rule="evenodd" d="M160 100.725C127.263 100.725 100.725 127.263 100.725 160C100.725 192.736 127.263 219.275 160 219.275C192.737 219.275 219.275 192.736 219.275 160C219.275 127.263 192.737 100.725 160 100.725ZM98.725 160C98.725 126.158 126.159 98.7246 160 98.7246C193.841 98.7246 221.275 126.158 221.275 160C221.275 193.841 193.841 221.275 160 221.275C126.159 221.275 98.725 193.841 98.725 160Z" fill="url(#paint3_linear_601_10798)"/>
<g filter="url(#filter2_d_601_10798)">
<path fill-rule="evenodd" clip-rule="evenodd" d="M160 131.577C157.365 131.577 155.228 133.713 155.228 136.349V164.977C155.228 167.612 157.365 169.748 160 169.748C162.635 169.748 164.771 167.612 164.771 164.977V136.349C164.771 133.713 162.635 131.577 160 131.577ZM160 188.422C163.162 188.422 165.726 185.858 165.726 182.696C165.726 179.534 163.162 176.971 160 176.971C156.838 176.971 154.274 179.534 154.274 182.696C154.274 185.858 156.838 188.422 160 188.422Z" fill="white"/>
</g>
<path fill-rule="evenodd" clip-rule="evenodd" d="M153.228 136.349C153.228 132.609 156.26 129.577 160 129.577C163.74 129.577 166.771 132.609 166.771 136.349V164.977C166.771 168.717 163.74 171.748 160 171.748C156.26 171.748 153.228 168.717 153.228 164.977V136.349ZM167.726 182.696C167.726 186.963 164.267 190.422 160 190.422C155.733 190.422 152.274 186.963 152.274 182.696C152.274 178.43 155.733 174.971 160 174.971C164.267 174.971 167.726 178.43 167.726 182.696ZM155.228 136.349C155.228 133.713 157.365 131.577 160 131.577C162.635 131.577 164.771 133.713 164.771 136.349V164.977C164.771 167.612 162.635 169.748 160 169.748C157.365 169.748 155.228 167.612 155.228 164.977V136.349ZM165.726 182.696C165.726 185.859 163.162 188.422 160 188.422C156.838 188.422 154.274 185.859 154.274 182.696C154.274 179.534 156.838 176.971 160 176.971C163.162 176.971 165.726 179.534 165.726 182.696Z" fill="url(#paint4_linear_601_10798)"/>
</g>
<defs>
<filter id="filter0_d_601_10798" x="48.6442" y="48.6436" width="222.712" height="222.712" filterUnits="userSpaceOnUse" color-interpolation-filters="sRGB">
<feFlood flood-opacity="0" result="BackgroundImageFix"/>
<feColorMatrix in="SourceAlpha" type="matrix" values="0 0 0 0 0 0 0 0 0 0 0 0 0 0 0 0 0 0 127 0" result="hardAlpha"/>
<feOffset/>
<feGaussianBlur stdDeviation="15"/>
<feComposite in2="hardAlpha" operator="out"/>
<feColorMatrix type="matrix" values="0 0 0 0 0.223529 0 0 0 0 0.235294 0 0 0 0 0.262745 0 0 0 0.3 0"/>
<feBlend mode="normal" in2="BackgroundImageFix" result="effect1_dropShadow_601_10798"/>
<feBlend mode="normal" in="SourceGraphic" in2="effect1_dropShadow_601_10798" result="shape"/>
</filter>
<filter id="filter1_dd_601_10798" x="69.725" y="69.7246" width="180.55" height="180.55" filterUnits="userSpaceOnUse" color-interpolation-filters="sRGB">
<feFlood flood-opacity="0" result="BackgroundImageFix"/>
<feColorMatrix in="SourceAlpha" type="matrix" values="0 0 0 0 0 0 0 0 0 0 0 0 0 0 0 0 0 0 127 0" result="hardAlpha"/>
<feOffset/>
<feGaussianBlur stdDeviation="15"/>
<feComposite in2="hardAlpha" operator="out"/>
<feColorMatrix type="matrix" values="0 0 0 0 0.223529 0 0 0 0 0.235294 0 0 0 0 0.262745 0 0 0 1 0"/>
<feBlend mode="normal" in2="BackgroundImageFix" result="effect1_dropShadow_601_10798"/>
<feColorMatrix in="SourceAlpha" type="matrix" values="0 0 0 0 0 0 0 0 0 0 0 0 0 0 0 0 0 0 127 0" result="hardAlpha"/>
<feOffset/>
<feGaussianBlur stdDeviation="5"/>
<feComposite in2="hardAlpha" operator="out"/>
<feColorMatrix type="matrix" values="0 0 0 0 1 0 0 0 0 1 0 0 0 0 1 0 0 0 0.8 0"/>
<feBlend mode="normal" in2="effect1_dropShadow_601_10798" result="effect2_dropShadow_601_10798"/>
<feBlend mode="normal" in="SourceGraphic" in2="effect2_dropShadow_601_10798" result="shape"/>
</filter>
<filter id="filter2_d_601_10798" x="134.274" y="111.577" width="51.4514" height="96.8447" filterUnits="userSpaceOnUse" color-interpolation-filters="sRGB">
<feFlood flood-opacity="0" result="BackgroundImageFix"/>
<feColorMatrix in="SourceAlpha" type="matrix" values="0 0 0 0 0 0 0 0 0 0 0 0 0 0 0 0 0 0 127 0" result="hardAlpha"/>
<feOffset/>
<feGaussianBlur stdDeviation="10"/>
<feComposite in2="hardAlpha" operator="out"/>
<feColorMatrix type="matrix" values="0 0 0 0 0.54902 0 0 0 0 0.572549 0 0 0 0 0.603922 0 0 0 1 0"/>
<feBlend mode="normal" in2="BackgroundImageFix" result="effect1_dropShadow_601_10798"/>
<feBlend mode="normal" in="SourceGraphic" in2="effect1_dropShadow_601_10798" result="shape"/>
</filter>
<radialGradient id="paint0_radial_601_10798" cx="0" cy="0" r="1" gradientUnits="userSpaceOnUse" gradientTransform="translate(160 160) rotate(-45) scale(125.112)">
<stop stop-color="#757B84" stop-opacity="0.3"/>
<stop offset="1" stop-color="#757B84" stop-opacity="0"/>
</radialGradient>
<linearGradient id="paint1_linear_601_10798" x1="80.6442" y1="80.6436" x2="239.356" y2="239.356" gradientUnits="userSpaceOnUse">
<stop stop-color="white"/>
<stop offset="1" stop-color="#8C929A"/>
</linearGradient>
<linearGradient id="paint2_linear_601_10798" x1="160" y1="153.238" x2="121.192" y2="87.1237" gradientUnits="userSpaceOnUse">
<stop stop-color="#1A1A1B"/>
<stop offset="1" stop-color="#757B84"/>
</linearGradient>
<linearGradient id="paint3_linear_601_10798" x1="220.275" y1="242.384" x2="137.054" y2="80.5308" gradientUnits="userSpaceOnUse">
<stop stop-color="#8C929A"/>
<stop offset="1" stop-color="white"/>
</linearGradient>
<linearGradient id="paint4_linear_601_10798" x1="152.274" y1="129.577" x2="191.926" y2="227.264" gradientUnits="userSpaceOnUse">
<stop stop-color="#8C929A"/>
<stop offset="1" stop-color="white"/>
</linearGradient>
<clipPath id="clip0_601_10798">
<rect width="320" height="320" fill="white"/>
</clipPath>
</defs>
</svg>
